# Blender 4.1.1
# www.blender.org
mtllib t.mtl
o Plane
v -1.127731 -1.107442 0.638695
v 1.125525 -1.110702 0.654931
v -1.114108 0.998504 0.634604
v 1.117487 1.000273 0.651541
v -1.315897 -0.938287 0.634268
v -1.318748 0.725224 0.636076
v 1.336548 -0.937996 0.666926
v 1.333191 0.751619 0.684884
v -1.127731 -1.107442 0.638695
v 1.125525 -1.110702 0.654931
v -1.127731 -1.107442 0.638695
v 1.125525 -1.110702 0.654931
v -1.114039 0.990990 0.634921
v 1.117557 0.992759 0.651858
v 1.336548 -0.937996 0.666926
v 1.333191 0.751619 0.684884
v -1.114108 0.998504 0.634604
v -1.318748 0.725224 0.636076
v 1.336548 -0.937996 0.666926
v 1.333191 0.751619 0.684884
v 1.117487 1.000273 0.651541
v 1.333191 0.751619 0.684884
vn -0.0074 0.0018 1.0000
vn -0.0077 0.0006 1.0000
vn -0.1064 -0.0041 0.9943
vn -0.0000 -0.0000 1.0000
vn 0.0076 -0.0421 -0.9991
vt 0.000000 0.000000
vt 1.000000 0.000000
vt 1.000000 1.000000
vt 0.000000 1.000000
s 0
f 1/1/1 2/2/1 4/3/1 3/4/1
f 1/1/2 3/4/2 6/4/2 5/1/2
f 4/3/3 2/2/3 7/2/3 8/3/3
f 2/2/4 1/1/4 9/1/4 10/2/4
f 10/2/4 9/1/4 11/1/4 12/2/4
f 3/4/5 4/3/5 14/3/5 13/4/5
f 8/3/4 7/2/4 15/2/4 16/3/4
f 6/4/4 3/4/4 17/4/4 18/4/4
f 16/3/4 15/2/4 19/2/4 20/3/4
f 4/3/4 8/3/4 22/3/4 21/3/4
