# Blender 4.1.1
# www.blender.org
mtllib turret_1.mtl
o turret01
v -0.862809 1.425387 -1.021224
v -0.862809 1.942980 -1.021224
v -0.672250 1.425387 -1.501552
v -0.689134 1.942980 -1.501553
v 0.862809 1.425387 -1.021224
v 0.862809 1.942980 -1.021224
v 0.690243 1.425387 -1.501552
v 0.691107 1.942980 -1.501553
v -1.462169 1.168405 -0.702174
v -1.462169 1.985396 -0.702174
v 1.462169 1.985396 -0.702174
v 1.462169 1.168405 -0.702174
v -1.462169 1.168405 0.325966
v -1.462169 1.985397 0.325966
v 1.462169 1.985397 0.325966
v 1.462169 1.168405 0.325966
v 0.100238 1.425387 -1.501552
v -0.163578 1.425387 -1.501552
v -0.140431 1.942980 -1.501553
v 0.097767 1.942980 -1.501553
v -0.141325 1.425387 -1.021224
v 0.098661 1.425387 -1.021224
v 0.098661 1.942980 -1.021224
v -0.141325 1.942980 -1.021224
v -0.341112 1.168405 -0.702174
v 0.298448 1.168405 -0.702174
v 0.148559 1.985396 -0.552285
v -0.191224 1.985396 -0.552285
v -0.256237 1.253280 0.325966
v 0.213573 1.253280 0.325966
v 0.148559 1.985396 0.176077
v -0.191224 1.985396 0.176077
v -1.254943 1.358518 1.210177
v -1.254943 1.790145 1.210177
v 1.270289 1.790145 1.210177
v 1.270289 1.358518 1.210177
v 0.298448 1.358518 1.210177
v -0.341112 1.790145 1.210177
v -0.341112 1.358518 1.210177
v 0.298448 1.790145 1.210177
v -1.100217 1.537694 1.831244
v -1.100217 1.632049 1.831244
v 1.115563 1.632049 1.831244
v 1.115563 1.537694 1.831244
v 0.298448 1.537694 1.831244
v -0.341112 1.632049 1.831244
v -0.341112 1.537694 1.831244
v 0.298448 1.632049 1.831244
v 0.298448 1.985396 -0.702174
v -0.341112 1.985396 -0.702174
v 0.213573 1.900522 0.325966
v -0.256237 1.900522 0.325966
v 0.148559 2.226825 -0.552285
v -0.191224 2.226825 -0.552285
v 0.148559 2.226825 -0.003776
v -0.191224 2.226825 -0.003776
v -0.341112 1.168405 0.325966
v 0.298448 1.168405 0.325966
v 0.298448 1.985397 0.325966
v -0.341112 1.985397 0.325966
v -0.256237 1.253280 0.393321
v 0.213573 1.253280 0.393321
v 0.213573 1.900522 0.393320
v -0.256237 1.900522 0.393320
v -0.288579 1.241252 0.634097
v 0.245915 1.241252 0.634097
v 0.245915 2.198509 0.634097
v -0.288579 2.198509 0.634097
v -0.288579 1.241252 0.947087
v 0.245915 1.241252 0.947087
v 0.245915 2.198509 0.947087
v -0.288579 2.198509 0.947087
v -0.288579 1.540562 1.163875
v 0.245915 1.540562 1.163875
v 0.245915 1.851939 1.163875
v -0.288579 1.851939 1.163875
v 0.107987 1.896075 1.753702
v 0.107987 1.873502 1.066272
v 0.147715 1.912531 1.753702
v 0.163676 1.896569 1.066272
v 0.164170 1.952259 1.753702
v 0.186744 1.952258 1.066272
v 0.147715 1.991986 1.753702
v 0.163676 2.007948 1.066272
v 0.107987 2.008442 1.753702
v 0.107987 2.031015 1.066272
v 0.068260 1.991986 1.753702
v 0.052298 2.007948 1.066272
v 0.051804 1.952259 1.753702
v 0.029231 1.952258 1.066272
v 0.068260 1.912531 1.753702
v 0.052298 1.896569 1.066272
v 0.107987 1.873502 1.753702
v 0.163676 1.896569 1.753702
v 0.186744 1.952258 1.753702
v 0.163676 2.007948 1.753702
v 0.107987 2.031015 1.753702
v 0.052298 2.007948 1.753702
v 0.029231 1.952258 1.753702
v 0.052298 1.896569 1.753702
v 0.107987 1.896075 2.019756
v 0.147715 1.912531 2.019756
v 0.164170 1.952258 2.019756
v 0.147715 1.991986 2.019756
v 0.107987 2.008442 2.019756
v 0.068260 1.991986 2.019756
v 0.051804 1.952258 2.019756
v 0.068260 1.912531 2.019756
v 0.107987 1.854205 2.024911
v 0.177322 1.882924 2.024911
v 0.206041 1.952258 2.024911
v 0.177321 2.021593 2.024911
v 0.107987 2.050312 2.024911
v 0.038653 2.021593 2.024911
v 0.009934 1.952258 2.024911
v 0.038653 1.882924 2.024911
v 0.107987 1.882948 2.514315
v 0.156997 1.903248 2.514315
v 0.177298 1.952258 2.514315
v 0.156997 2.001268 2.514315
v 0.107987 2.021569 2.514315
v 0.058977 2.001268 2.514315
v 0.038677 1.952258 2.514315
v 0.058977 1.903248 2.514315
v 0.107987 1.854205 2.514315
v 0.177322 1.882924 2.514315
v 0.206041 1.952258 2.514315
v 0.177321 2.021593 2.514315
v 0.107987 2.050312 2.514315
v 0.038653 2.021593 2.514315
v 0.009934 1.952258 2.514315
v 0.038653 1.882924 2.514315
v 0.107987 1.893772 2.668448
v 0.149344 1.910902 2.668448
v 0.166474 1.952258 2.668448
v 0.149343 1.993615 2.668448
v 0.107987 2.010745 2.668448
v 0.066631 1.993615 2.668448
v 0.049501 1.952258 2.668448
v 0.066631 1.910902 2.668448
v 0.107987 1.882948 2.668448
v 0.156997 1.903249 2.668448
v 0.177298 1.952258 2.668448
v 0.156997 2.001269 2.668448
v 0.107987 2.021569 2.668448
v 0.058977 2.001269 2.668448
v 0.038677 1.952258 2.668448
v 0.058977 1.903249 2.668448
v 0.107987 1.893772 3.348958
v 0.149344 1.910902 3.348958
v 0.166474 1.952258 3.348958
v 0.149343 1.993615 3.348958
v 0.107987 2.010745 3.348958
v 0.066631 1.993615 3.348958
v 0.049501 1.952258 3.348958
v 0.066631 1.910902 3.348958
v 0.107987 1.865981 3.362311
v 0.168995 1.891251 3.362311
v 0.194265 1.952258 3.362311
v 0.168995 2.013266 3.362311
v 0.107987 2.038536 3.362311
v 0.046980 2.013266 3.362311
v 0.021710 1.952258 3.362311
v 0.046980 1.891251 3.362311
v 0.107987 1.862012 3.379003
v 0.171802 1.888444 3.379003
v 0.198234 1.952258 3.379003
v 0.171802 2.016073 3.379003
v 0.107987 2.042506 3.379003
v 0.044173 2.016073 3.379003
v 0.017740 1.952258 3.379003
v 0.044173 1.888444 3.379003
v 0.107987 1.862012 3.846362
v 0.171802 1.888445 3.846362
v 0.198234 1.952259 3.846362
v 0.171802 2.016073 3.846362
v 0.107987 2.042506 3.846362
v 0.044173 2.016073 3.846362
v 0.017740 1.952259 3.846362
v 0.044173 1.888445 3.846362
v 0.107987 1.920361 3.836644
v 0.130543 1.929703 3.836644
v 0.139886 1.952259 3.836644
v 0.130543 1.974815 3.836644
v 0.107987 1.984157 3.836644
v 0.085432 1.974815 3.836644
v 0.076089 1.952259 3.836644
v 0.085432 1.929703 3.836644
v 0.107987 1.878227 3.859715
v 0.160336 1.899910 3.859715
v 0.182019 1.952259 3.859715
v 0.160336 2.004608 3.859715
v 0.107987 2.026291 3.859715
v 0.055639 2.004608 3.859715
v 0.033955 1.952259 3.859715
v 0.055638 1.899910 3.859715
v 0.107987 1.900972 3.859715
v 0.144253 1.915994 3.859715
v 0.159274 1.952259 3.859715
v 0.144252 1.988524 3.859715
v 0.107987 2.003546 3.859715
v 0.071722 1.988524 3.859715
v 0.056700 1.952259 3.859715
v 0.071722 1.915994 3.859715
v -0.146790 1.896075 1.753702
v -0.146790 1.873502 1.066272
v -0.107063 1.912531 1.753702
v -0.091101 1.896569 1.066272
v -0.090607 1.952259 1.753702
v -0.068034 1.952258 1.066272
v -0.107063 1.991986 1.753702
v -0.091101 2.007948 1.066272
v -0.146790 2.008442 1.753702
v -0.146790 2.031015 1.066272
v -0.186518 1.991986 1.753702
v -0.202480 2.007948 1.066272
v -0.202974 1.952259 1.753702
v -0.225547 1.952258 1.066272
v -0.186518 1.912531 1.753702
v -0.202480 1.896569 1.066272
v -0.146790 1.873502 1.753702
v -0.091101 1.896569 1.753702
v -0.068034 1.952258 1.753702
v -0.091101 2.007948 1.753702
v -0.146790 2.031015 1.753702
v -0.202480 2.007948 1.753702
v -0.225547 1.952258 1.753702
v -0.202480 1.896569 1.753702
v -0.146790 1.896075 2.019756
v -0.107063 1.912531 2.019756
v -0.090607 1.952258 2.019756
v -0.107063 1.991986 2.019756
v -0.146790 2.008442 2.019756
v -0.186518 1.991986 2.019756
v -0.202974 1.952258 2.019756
v -0.186518 1.912531 2.019756
v -0.146790 1.854205 2.024911
v -0.077456 1.882924 2.024911
v -0.048737 1.952258 2.024911
v -0.077456 2.021593 2.024911
v -0.146790 2.050312 2.024911
v -0.216125 2.021593 2.024911
v -0.244844 1.952258 2.024911
v -0.216125 1.882924 2.024911
v -0.146790 1.882948 2.514315
v -0.097780 1.903248 2.514315
v -0.077480 1.952258 2.514315
v -0.097781 2.001268 2.514315
v -0.146790 2.021569 2.514315
v -0.195800 2.001268 2.514315
v -0.216101 1.952258 2.514315
v -0.195800 1.903248 2.514315
v -0.146790 1.854205 2.514315
v -0.077456 1.882924 2.514315
v -0.048737 1.952258 2.514315
v -0.077456 2.021593 2.514315
v -0.146790 2.050312 2.514315
v -0.216125 2.021593 2.514315
v -0.244844 1.952258 2.514315
v -0.216125 1.882924 2.514315
v -0.146790 1.893772 2.668448
v -0.105434 1.910902 2.668448
v -0.088304 1.952258 2.668448
v -0.105434 1.993615 2.668448
v -0.146790 2.010745 2.668448
v -0.188147 1.993615 2.668448
v -0.205277 1.952258 2.668448
v -0.188147 1.910902 2.668448
v -0.146790 1.882948 2.668448
v -0.097780 1.903249 2.668448
v -0.077480 1.952258 2.668448
v -0.097781 2.001269 2.668448
v -0.146790 2.021569 2.668448
v -0.195800 2.001269 2.668448
v -0.216101 1.952258 2.668448
v -0.195800 1.903249 2.668448
v -0.146790 1.893772 3.348958
v -0.105434 1.910902 3.348958
v -0.088304 1.952258 3.348958
v -0.105434 1.993615 3.348958
v -0.146790 2.010745 3.348958
v -0.188147 1.993615 3.348958
v -0.205277 1.952258 3.348958
v -0.188147 1.910902 3.348958
v -0.146790 1.865981 3.362311
v -0.085783 1.891251 3.362311
v -0.060513 1.952258 3.362311
v -0.085783 2.013266 3.362311
v -0.146790 2.038536 3.362311
v -0.207798 2.013266 3.362311
v -0.233068 1.952258 3.362311
v -0.207798 1.891251 3.362311
v -0.146790 1.862012 3.379003
v -0.082976 1.888444 3.379003
v -0.056543 1.952258 3.379003
v -0.082976 2.016073 3.379003
v -0.146790 2.042506 3.379003
v -0.210605 2.016073 3.379003
v -0.237038 1.952258 3.379003
v -0.210605 1.888444 3.379003
v -0.146790 1.862012 3.846362
v -0.082976 1.888445 3.846362
v -0.056543 1.952259 3.846362
v -0.082976 2.016073 3.846362
v -0.146790 2.042506 3.846362
v -0.210605 2.016073 3.846362
v -0.237038 1.952259 3.846362
v -0.210605 1.888445 3.846362
v -0.146790 1.920361 3.836644
v -0.124235 1.929703 3.836644
v -0.114892 1.952259 3.836644
v -0.124235 1.974815 3.836644
v -0.146790 1.984157 3.836644
v -0.169346 1.974815 3.836644
v -0.178689 1.952259 3.836644
v -0.169346 1.929703 3.836644
v -0.146790 1.878227 3.859715
v -0.094442 1.899910 3.859715
v -0.072758 1.952259 3.859715
v -0.094442 2.004608 3.859715
v -0.146790 2.026291 3.859715
v -0.199139 2.004608 3.859715
v -0.220823 1.952259 3.859715
v -0.199139 1.899910 3.859715
v -0.146790 1.900972 3.859715
v -0.110525 1.915994 3.859715
v -0.095504 1.952259 3.859715
v -0.110525 1.988524 3.859715
v -0.146790 2.003546 3.859715
v -0.183056 1.988524 3.859715
v -0.198077 1.952259 3.859715
v -0.183056 1.915994 3.859715
vn -0.9349 -0.0152 -0.3545
vn -0.0000 -0.0000 -1.0000
vn 0.9414 -0.0008 -0.3374
vn -0.0000 0.9913 -0.1318
vn -0.0000 -1.0000 -0.0000
vn -0.0000 1.0000 -0.0000
vn 0.4699 -0.0000 -0.8827
vn -0.4699 -0.0000 -0.8827
vn -0.0000 -0.7788 -0.6273
vn -0.0000 -0.9777 0.2102
vn 1.0000 -0.0000 -0.0000
vn -1.0000 -0.0000 -0.0000
vn -0.0000 -0.9608 0.2772
vn -0.0000 0.9765 0.2156
vn -0.9736 -0.0000 0.2282
vn -0.9706 -0.0000 0.2408
vn 0.9773 -0.0000 0.2121
vn -0.0000 -0.0000 1.0000
vn -0.9703 -0.0000 0.2417
vn -0.0000 0.9691 0.2467
vn 0.9703 -0.0000 0.2417
vn -0.0000 0.5974 0.8019
vn -0.0000 0.6285 -0.7778
vn 0.9911 -0.0000 -0.1331
vn -0.0000 -0.9988 -0.0499
vn -0.9911 -0.0000 -0.1331
vn -0.0000 0.5303 0.8478
vn -0.0000 -0.5866 0.8099
vn 0.3827 -0.9239 -0.0000
vn 0.9239 -0.3827 -0.0000
vn 0.9239 0.3827 -0.0000
vn 0.3827 0.9239 -0.0000
vn -0.3827 0.9239 -0.0000
vn -0.9239 0.3827 -0.0000
vn -0.9239 -0.3827 -0.0000
vn -0.3827 -0.9239 -0.0000
vn -0.1220 -0.0506 -0.9912
vn -0.0506 0.1220 -0.9912
vn 0.1220 0.0506 -0.9912
vn 0.0506 -0.1220 -0.9912
vn -0.0506 -0.1220 -0.9912
vn -0.1220 0.0506 -0.9912
vn 0.0506 0.1220 -0.9912
vn 0.1220 -0.0506 -0.9912
vn -0.1766 -0.4263 -0.8872
vn -0.3738 0.9024 -0.2146
vn -0.4263 0.1766 -0.8872
vn 0.1766 0.4263 -0.8872
vn 0.4263 -0.1766 -0.8872
vn -0.4263 -0.1766 -0.8872
vn -0.1766 0.4263 -0.8872
vn 0.4263 0.1766 -0.8872
vn 0.1766 -0.4263 -0.8872
vn 0.9024 0.3738 -0.2146
vn 0.3738 -0.9024 -0.2146
vn -0.3738 -0.9024 -0.2146
vn -0.9024 0.3738 -0.2146
vn 0.3738 0.9024 -0.2146
vn 0.9024 -0.3738 -0.2146
vn -0.9024 -0.3738 -0.2146
vn -0.6147 0.2546 0.7465
vn 0.2546 0.6147 0.7465
vn 0.6147 -0.2546 0.7465
vn -0.6147 -0.2546 0.7465
vn -0.2546 0.6147 0.7465
vn 0.6147 0.2546 0.7465
vn 0.2546 -0.6147 0.7465
vn -0.2546 -0.6147 0.7465
vn -0.3023 0.7297 0.6133
vn -0.7297 0.3023 0.6133
vn -0.7297 -0.3023 0.6133
vn -0.3023 -0.7297 0.6133
vn 0.3023 -0.7297 0.6133
vn 0.7297 -0.3023 0.6133
vn 0.7297 0.3023 0.6133
vn 0.3023 0.7297 0.6133
vt 0.221866 0.885928
vt 0.285947 0.885928
vt 0.285947 0.950009
vt 0.221866 0.950009
vt 0.049991 0.885928
vt 0.114072 0.885928
vt 0.114072 0.950009
vt 0.049991 0.950009
vt 0.253906 0.950009
vt 0.276562 0.940625
vt 0.285947 0.917969
vt 0.276562 0.895313
vt 0.253906 0.885928
vt 0.231250 0.895313
vt 0.221866 0.917969
vt 0.231250 0.940625
s 1
usemtl Material.005
f 1/1/1 2/2/1 4/3/1 3/4/1
f 17/1/2 20/2/2 8/3/2 7/4/2
f 7/1/3 8/2/3 6/3/3 5/4/3
f 24/5/4 2/6/4 10/7/4 50/8/4
f 17/1/5 7/2/5 5/3/5 22/4/5
f 19/5/6 4/6/6 2/7/6 24/8/6
f 50/5/6 10/6/6 14/7/6 60/8/6
f 5/1/7 6/2/7 11/3/7 12/4/7
f 2/1/8 1/2/8 9/3/8 10/4/8
f 22/1/9 5/2/9 12/3/9 26/4/9
f 58/1/10 16/2/10 36/3/10 37/4/10
f 12/1/11 11/2/11 15/3/11 16/4/11
f 26/1/5 12/2/5 16/3/5 58/4/5
f 10/1/12 9/2/12 13/3/12 14/4/12
f 9/1/5 25/2/5 57/3/5 13/4/5
f 25/1/5 26/2/5 58/3/5 57/4/5
f 59/1/12 58/2/12 37/3/12 40/4/12
f 52/1/12 29/2/12 61/3/12 64/4/12
f 1/1/9 21/2/9 25/3/9 9/4/9
f 21/1/9 22/2/9 26/3/9 25/4/9
f 11/5/6 49/6/6 59/7/6 15/8/6
f 27/1/2 28/2/2 54/3/2 53/4/2
f 8/5/6 20/6/6 23/7/6 6/8/6
f 20/5/6 19/6/6 24/7/6 23/8/6
f 3/1/5 18/2/5 21/3/5 1/4/5
f 18/1/5 17/2/5 22/3/5 21/4/5
f 6/5/4 23/6/4 49/7/4 11/8/4
f 23/1/4 24/2/4 50/3/4 49/4/4
f 3/1/2 4/2/2 19/3/2 18/4/2
f 18/1/2 19/2/2 20/3/2 17/4/2
f 33/1/13 39/2/13 47/3/13 41/4/13
f 40/1/12 37/2/12 45/3/12 48/4/12
f 15/5/14 59/6/14 40/7/14 35/8/14
f 14/1/15 13/2/15 33/3/16 34/4/16
f 13/1/10 57/2/10 39/3/10 33/4/10
f 57/1/11 60/2/11 38/3/11 39/4/11
f 60/5/14 14/6/14 34/7/14 38/8/14
f 16/1/17 15/2/17 35/3/17 36/4/17
f 47/1/18 46/2/18 42/3/18 41/4/18
f 44/1/18 43/2/18 48/3/18 45/4/18
f 37/1/13 36/2/13 44/3/13 45/4/13
f 34/1/16 33/2/16 41/3/19 42/4/19
f 39/1/11 38/2/11 46/3/11 47/4/11
f 35/5/20 40/6/20 48/7/20 43/8/20
f 38/5/20 34/6/20 42/7/20 46/8/20
f 36/1/21 35/2/21 43/3/21 44/4/21
f 28/1/6 27/2/6 49/3/6 50/4/6
f 31/1/6 32/2/6 60/3/6 59/4/6
f 27/1/6 31/2/6 59/3/6 49/4/6
f 32/1/6 28/2/6 50/3/6 60/4/6
f 53/5/6 54/6/6 56/7/6 55/8/6
f 28/1/12 32/2/12 56/3/12 54/4/12
f 32/5/22 31/6/22 55/7/22 56/8/22
f 31/1/11 27/2/11 53/3/11 55/4/11
f 30/1/18 29/2/18 57/3/18 58/4/18
f 52/1/18 51/2/18 59/3/18 60/4/18
f 51/1/18 30/2/18 58/3/18 59/4/18
f 29/1/18 52/2/18 60/3/18 57/4/18
f 63/1/23 64/2/23 68/3/23 67/4/23
f 51/1/6 52/2/6 64/3/6 63/4/6
f 30/1/11 51/2/11 63/3/11 62/4/11
f 29/1/5 30/2/5 62/3/5 61/4/5
f 66/1/11 67/2/11 71/3/11 70/4/11
f 62/1/24 63/2/24 67/3/24 66/4/24
f 61/1/25 62/2/25 66/3/25 65/4/25
f 64/1/26 61/2/26 65/3/26 68/4/26
f 72/1/12 69/2/12 73/3/12 76/4/12
f 65/1/5 66/2/5 70/3/5 69/4/5
f 68/1/12 65/2/12 69/3/12 72/4/12
f 67/5/6 68/6/6 72/7/6 71/8/6
f 74/1/18 75/2/18 76/3/18 73/4/18
f 71/5/27 72/6/27 76/7/27 75/8/27
f 70/1/11 71/2/11 75/3/11 74/4/11
f 69/1/28 70/2/28 74/3/28 73/4/28
f 93/1/29 78/2/29 80/3/29 94/4/29
f 94/1/30 80/2/30 82/3/30 95/4/30
f 95/1/31 82/2/31 84/3/31 96/4/31
f 96/5/32 84/6/32 86/7/32 97/8/32
f 97/5/33 86/6/33 88/7/33 98/8/33
f 98/1/34 88/2/34 90/3/34 99/4/34
f 80/9/2 78/10/2 92/11/2 90/12/2 88/13/2 86/14/2 84/15/2 82/16/2
f 99/1/35 90/2/35 92/3/35 100/4/35
f 100/1/36 92/2/36 78/3/36 93/4/36
f 77/1/29 79/2/29 102/3/29 101/4/29
f 79/1/18 77/2/18 93/3/18 94/4/18
f 81/1/18 79/2/18 94/3/18 95/4/18
f 83/1/18 81/2/18 95/3/18 96/4/18
f 85/1/18 83/2/18 96/3/18 97/4/18
f 87/1/18 85/2/18 97/3/18 98/4/18
f 89/1/18 87/2/18 98/3/18 99/4/18
f 91/1/18 89/2/18 99/3/18 100/4/18
f 77/1/18 91/2/18 100/3/18 93/4/18
f 107/1/37 108/2/37 116/3/37 115/4/37
f 91/1/36 77/2/36 101/3/36 108/4/36
f 87/1/34 89/2/34 107/3/34 106/4/34
f 83/1/32 85/2/32 105/3/32 104/4/32
f 79/1/30 81/2/30 103/3/30 102/4/30
f 89/1/35 91/2/35 108/3/35 107/4/35
f 85/1/33 87/2/33 106/3/33 105/4/33
f 81/1/31 83/2/31 104/3/31 103/4/31
f 110/1/30 111/2/30 127/3/30 126/4/30
f 105/1/38 106/2/38 114/3/38 113/4/38
f 103/1/39 104/2/39 112/3/39 111/4/39
f 101/1/40 102/2/40 110/3/40 109/4/40
f 108/1/41 101/2/41 109/3/41 116/4/41
f 106/1/42 107/2/42 115/3/42 114/4/42
f 104/1/43 105/2/43 113/3/43 112/4/43
f 102/1/44 103/2/44 111/3/44 110/4/44
f 119/1/31 120/2/31 144/3/31 143/4/31
f 115/1/35 116/2/35 132/3/35 131/4/35
f 113/5/33 114/6/33 130/7/33 129/8/33
f 111/1/31 112/2/31 128/3/31 127/4/31
f 109/1/29 110/2/29 126/3/29 125/4/29
f 116/1/36 109/2/36 125/3/36 132/4/36
f 114/1/34 115/2/34 131/3/34 130/4/34
f 112/5/32 113/6/32 129/7/32 128/8/32
f 118/1/18 117/2/18 125/3/18 126/4/18
f 119/1/18 118/2/18 126/3/18 127/4/18
f 120/1/18 119/2/18 127/3/18 128/4/18
f 121/1/18 120/2/18 128/3/18 129/4/18
f 122/1/18 121/2/18 129/3/18 130/4/18
f 123/1/18 122/2/18 130/3/18 131/4/18
f 124/1/18 123/2/18 131/3/18 132/4/18
f 117/1/18 124/2/18 132/3/18 125/4/18
f 136/1/32 137/2/32 153/3/32 152/4/32
f 117/1/29 118/2/29 142/3/29 141/4/29
f 124/1/36 117/2/36 141/3/36 148/4/36
f 122/1/34 123/2/34 147/3/34 146/4/34
f 120/5/32 121/6/32 145/7/32 144/8/32
f 118/1/30 119/2/30 143/3/30 142/4/30
f 123/1/35 124/2/35 148/3/35 147/4/35
f 121/5/33 122/6/33 146/7/33 145/8/33
f 134/1/18 133/2/18 141/3/18 142/4/18
f 135/1/18 134/2/18 142/3/18 143/4/18
f 136/1/18 135/2/18 143/3/18 144/4/18
f 137/1/18 136/2/18 144/3/18 145/4/18
f 138/1/18 137/2/18 145/3/18 146/4/18
f 139/1/18 138/2/18 146/3/18 147/4/18
f 140/1/18 139/2/18 147/3/18 148/4/18
f 133/1/18 140/2/18 148/3/18 141/4/18
f 156/1/45 149/2/45 157/3/45 164/4/45
f 134/1/30 135/2/30 151/3/30 150/4/30
f 139/1/35 140/2/35 156/3/35 155/4/35
f 137/1/33 138/2/33 154/3/33 153/4/33
f 135/1/31 136/2/31 152/3/31 151/4/31
f 133/1/29 134/2/29 150/3/29 149/4/29
f 140/1/36 133/2/36 149/3/36 156/4/36
f 138/1/34 139/2/34 155/3/34 154/4/34
f 161/1/46 162/2/46 170/3/46 169/4/46
f 154/1/47 155/2/47 163/3/47 162/4/47
f 152/1/48 153/2/48 161/3/48 160/4/48
f 150/1/49 151/2/49 159/3/49 158/4/49
f 155/1/50 156/2/50 164/3/50 163/4/50
f 153/1/51 154/2/51 162/3/51 161/4/51
f 151/1/52 152/2/52 160/3/52 159/4/52
f 149/1/53 150/2/53 158/3/53 157/4/53
f 171/1/35 172/2/35 180/3/35 179/4/35
f 159/1/54 160/2/54 168/3/54 167/4/54
f 157/1/55 158/2/55 166/3/55 165/4/55
f 164/1/56 157/2/56 165/3/56 172/4/56
f 162/1/57 163/2/57 171/3/57 170/4/57
f 160/1/58 161/2/58 169/3/58 168/4/58
f 158/1/59 159/2/59 167/3/59 166/4/59
f 163/1/60 164/2/60 172/3/60 171/4/60
f 178/1/61 179/2/61 195/3/61 194/4/61
f 169/5/33 170/6/33 178/7/33 177/8/33
f 167/1/31 168/2/31 176/3/31 175/4/31
f 165/1/29 166/2/29 174/3/29 173/4/29
f 172/1/36 165/2/36 173/3/36 180/4/36
f 170/1/34 171/2/34 179/3/34 178/4/34
f 168/5/32 169/6/32 177/7/32 176/8/32
f 166/1/30 167/2/30 175/3/30 174/4/30
f 181/9/18 182/10/18 183/11/18 184/12/18 185/13/18 186/14/18 187/15/18 188/16/18
f 176/1/62 177/2/62 193/3/62 192/4/62
f 174/1/63 175/2/63 191/3/63 190/4/63
f 179/1/64 180/2/64 196/3/64 195/4/64
f 177/1/65 178/2/65 194/3/65 193/4/65
f 175/1/66 176/2/66 192/3/66 191/4/66
f 173/1/67 174/2/67 190/3/67 189/4/67
f 180/1/68 173/2/68 189/3/68 196/4/68
f 198/1/18 197/2/18 189/3/18 190/4/18
f 199/1/18 198/2/18 190/3/18 191/4/18
f 200/1/18 199/2/18 191/3/18 192/4/18
f 201/1/18 200/2/18 192/3/18 193/4/18
f 202/1/18 201/2/18 193/3/18 194/4/18
f 203/1/18 202/2/18 194/3/18 195/4/18
f 204/1/18 203/2/18 195/3/18 196/4/18
f 197/1/18 204/2/18 196/3/18 189/4/18
f 182/1/69 181/2/69 197/3/69 198/4/69
f 183/1/70 182/2/70 198/3/70 199/4/70
f 184/1/71 183/2/71 199/3/71 200/4/71
f 185/1/72 184/2/72 200/3/72 201/4/72
f 186/1/73 185/2/73 201/3/73 202/4/73
f 187/1/74 186/2/74 202/3/74 203/4/74
f 188/1/75 187/2/75 203/3/75 204/4/75
f 181/1/76 188/2/76 204/3/76 197/4/76
f 221/1/29 206/2/29 208/3/29 222/4/29
f 222/1/30 208/2/30 210/3/30 223/4/30
f 223/1/31 210/2/31 212/3/31 224/4/31
f 224/5/32 212/6/32 214/7/32 225/8/32
f 225/5/33 214/6/33 216/7/33 226/8/33
f 226/1/34 216/2/34 218/3/34 227/4/34
f 208/9/2 206/10/2 220/11/2 218/12/2 216/13/2 214/14/2 212/15/2 210/16/2
f 227/1/35 218/2/35 220/3/35 228/4/35
f 228/1/36 220/2/36 206/3/36 221/4/36
f 205/1/29 207/2/29 230/3/29 229/4/29
f 207/1/18 205/2/18 221/3/18 222/4/18
f 209/1/18 207/2/18 222/3/18 223/4/18
f 211/1/18 209/2/18 223/3/18 224/4/18
f 213/1/18 211/2/18 224/3/18 225/4/18
f 215/1/18 213/2/18 225/3/18 226/4/18
f 217/1/18 215/2/18 226/3/18 227/4/18
f 219/1/18 217/2/18 227/3/18 228/4/18
f 205/1/18 219/2/18 228/3/18 221/4/18
f 235/1/37 236/2/37 244/3/37 243/4/37
f 219/1/36 205/2/36 229/3/36 236/4/36
f 215/1/34 217/2/34 235/3/34 234/4/34
f 211/1/32 213/2/32 233/3/32 232/4/32
f 207/1/30 209/2/30 231/3/30 230/4/30
f 217/1/35 219/2/35 236/3/35 235/4/35
f 213/1/33 215/2/33 234/3/33 233/4/33
f 209/1/31 211/2/31 232/3/31 231/4/31
f 238/1/30 239/2/30 255/3/30 254/4/30
f 233/1/38 234/2/38 242/3/38 241/4/38
f 231/1/39 232/2/39 240/3/39 239/4/39
f 229/1/40 230/2/40 238/3/40 237/4/40
f 236/1/41 229/2/41 237/3/41 244/4/41
f 234/1/42 235/2/42 243/3/42 242/4/42
f 232/1/43 233/2/43 241/3/43 240/4/43
f 230/1/44 231/2/44 239/3/44 238/4/44
f 247/1/31 248/2/31 272/3/31 271/4/31
f 243/1/35 244/2/35 260/3/35 259/4/35
f 241/5/33 242/6/33 258/7/33 257/8/33
f 239/1/31 240/2/31 256/3/31 255/4/31
f 237/1/29 238/2/29 254/3/29 253/4/29
f 244/1/36 237/2/36 253/3/36 260/4/36
f 242/1/34 243/2/34 259/3/34 258/4/34
f 240/5/32 241/6/32 257/7/32 256/8/32
f 246/1/18 245/2/18 253/3/18 254/4/18
f 247/1/18 246/2/18 254/3/18 255/4/18
f 248/1/18 247/2/18 255/3/18 256/4/18
f 249/1/18 248/2/18 256/3/18 257/4/18
f 250/1/18 249/2/18 257/3/18 258/4/18
f 251/1/18 250/2/18 258/3/18 259/4/18
f 252/1/18 251/2/18 259/3/18 260/4/18
f 245/1/18 252/2/18 260/3/18 253/4/18
f 264/1/32 265/2/32 281/3/32 280/4/32
f 245/1/29 246/2/29 270/3/29 269/4/29
f 252/1/36 245/2/36 269/3/36 276/4/36
f 250/1/34 251/2/34 275/3/34 274/4/34
f 248/5/32 249/6/32 273/7/32 272/8/32
f 246/1/30 247/2/30 271/3/30 270/4/30
f 251/1/35 252/2/35 276/3/35 275/4/35
f 249/5/33 250/6/33 274/7/33 273/8/33
f 262/1/18 261/2/18 269/3/18 270/4/18
f 263/1/18 262/2/18 270/3/18 271/4/18
f 264/1/18 263/2/18 271/3/18 272/4/18
f 265/1/18 264/2/18 272/3/18 273/4/18
f 266/1/18 265/2/18 273/3/18 274/4/18
f 267/1/18 266/2/18 274/3/18 275/4/18
f 268/1/18 267/2/18 275/3/18 276/4/18
f 261/1/18 268/2/18 276/3/18 269/4/18
f 284/1/45 277/2/45 285/3/45 292/4/45
f 262/1/30 263/2/30 279/3/30 278/4/30
f 267/1/35 268/2/35 284/3/35 283/4/35
f 265/1/33 266/2/33 282/3/33 281/4/33
f 263/1/31 264/2/31 280/3/31 279/4/31
f 261/1/29 262/2/29 278/3/29 277/4/29
f 268/1/36 261/2/36 277/3/36 284/4/36
f 266/1/34 267/2/34 283/3/34 282/4/34
f 289/1/46 290/2/46 298/3/46 297/4/46
f 282/1/47 283/2/47 291/3/47 290/4/47
f 280/1/48 281/2/48 289/3/48 288/4/48
f 278/1/49 279/2/49 287/3/49 286/4/49
f 283/1/50 284/2/50 292/3/50 291/4/50
f 281/1/51 282/2/51 290/3/51 289/4/51
f 279/1/52 280/2/52 288/3/52 287/4/52
f 277/1/53 278/2/53 286/3/53 285/4/53
f 299/1/35 300/2/35 308/3/35 307/4/35
f 287/1/54 288/2/54 296/3/54 295/4/54
f 285/1/55 286/2/55 294/3/55 293/4/55
f 292/1/56 285/2/56 293/3/56 300/4/56
f 290/1/57 291/2/57 299/3/57 298/4/57
f 288/1/58 289/2/58 297/3/58 296/4/58
f 286/1/59 287/2/59 295/3/59 294/4/59
f 291/1/60 292/2/60 300/3/60 299/4/60
f 306/1/61 307/2/61 323/3/61 322/4/61
f 297/5/33 298/6/33 306/7/33 305/8/33
f 295/1/31 296/2/31 304/3/31 303/4/31
f 293/1/29 294/2/29 302/3/29 301/4/29
f 300/1/36 293/2/36 301/3/36 308/4/36
f 298/1/34 299/2/34 307/3/34 306/4/34
f 296/5/32 297/6/32 305/7/32 304/8/32
f 294/1/30 295/2/30 303/3/30 302/4/30
f 309/9/18 310/10/18 311/11/18 312/12/18 313/13/18 314/14/18 315/15/18 316/16/18
f 304/1/62 305/2/62 321/3/62 320/4/62
f 302/1/63 303/2/63 319/3/63 318/4/63
f 307/1/64 308/2/64 324/3/64 323/4/64
f 305/1/65 306/2/65 322/3/65 321/4/65
f 303/1/66 304/2/66 320/3/66 319/4/66
f 301/1/67 302/2/67 318/3/67 317/4/67
f 308/1/68 301/2/68 317/3/68 324/4/68
f 326/1/18 325/2/18 317/3/18 318/4/18
f 327/1/18 326/2/18 318/3/18 319/4/18
f 328/1/18 327/2/18 319/3/18 320/4/18
f 329/1/18 328/2/18 320/3/18 321/4/18
f 330/1/18 329/2/18 321/3/18 322/4/18
f 331/1/18 330/2/18 322/3/18 323/4/18
f 332/1/18 331/2/18 323/3/18 324/4/18
f 325/1/18 332/2/18 324/3/18 317/4/18
f 310/1/69 309/2/69 325/3/69 326/4/69
f 311/1/70 310/2/70 326/3/70 327/4/70
f 312/1/71 311/2/71 327/3/71 328/4/71
f 313/1/72 312/2/72 328/3/72 329/4/72
f 314/1/73 313/2/73 329/3/73 330/4/73
f 315/1/74 314/2/74 330/3/74 331/4/74
f 316/1/75 315/2/75 331/3/75 332/4/75
f 309/1/76 316/2/76 332/3/76 325/4/76
