# Blender 4.1.1
# www.blender.org
mtllib turret_3.mtl
o turret03
v -0.862809 1.425387 -1.175808
v -0.862809 1.942980 -1.175808
v -0.672250 1.425387 -1.408245
v -0.689134 1.942980 -1.408245
v 0.862809 1.425387 -1.172987
v 0.862809 1.942980 -1.172987
v 0.690243 1.425387 -1.408245
v 0.691107 1.942980 -1.408245
v -1.492016 1.168405 -0.702174
v -1.492016 1.985396 -0.702174
v 1.462169 1.985396 -0.702174
v 1.462169 1.168405 -0.702174
v -1.492016 1.168405 0.296207
v -1.492016 1.985397 0.296207
v 1.462169 1.985397 0.296207
v 1.462169 1.168405 0.296207
v 0.100238 1.425387 -1.924588
v -0.163578 1.425387 -1.924588
v -0.140431 1.942980 -1.924588
v 0.097767 1.942980 -1.924588
v -0.141325 1.425387 -1.771980
v 0.098661 1.425387 -1.771980
v 0.098661 1.942980 -1.444366
v -0.141325 1.942980 -1.444366
v -0.341112 1.168404 -1.452929
v 0.298448 1.168404 -1.452929
v 0.148559 1.985396 -1.049488
v -0.191224 1.985396 -1.049488
v -0.256237 1.253279 -0.454549
v 0.213573 1.253279 -0.454549
v 0.148559 1.985396 -0.574679
v -0.191224 1.985396 -0.574679
v -1.284789 1.358518 1.180419
v -1.284789 1.790145 1.180419
v 1.270289 1.790145 1.180419
v 1.270289 1.358518 1.180419
v 0.298448 1.358518 1.180419
v -0.341112 1.790145 1.180419
v -0.341112 1.358518 1.180419
v 0.298448 1.790145 1.180419
v -1.130064 1.433545 1.380586
v -1.130064 1.736198 1.380586
v 1.115563 1.736198 1.380586
v 1.115563 1.433545 1.380586
v 0.298448 1.433545 1.380586
v -0.341112 1.736198 1.380586
v -0.341112 1.433545 1.380586
v 0.298448 1.736198 1.380586
v 0.298448 1.985396 -1.125315
v -0.341112 1.985396 -1.125315
v 0.213573 1.900522 -0.454549
v -0.256237 1.900522 -0.454549
v 0.148559 2.226825 -1.049488
v -0.191224 2.226825 -1.049488
v 0.148559 2.226825 -0.754532
v -0.191224 2.226825 -0.754532
v -0.341112 1.168405 -0.454549
v 0.298448 1.168405 -0.454549
v 0.298448 1.985396 -0.454549
v -0.341112 1.985396 -0.454549
v -0.256237 1.253279 -0.387194
v 0.213573 1.253279 -0.387194
v 0.213573 1.900522 -0.387194
v -0.256237 1.900522 -0.387194
v -0.288579 1.241251 -0.146418
v 0.245915 1.241251 -0.146418
v 0.245915 2.385692 -0.337541
v -0.288579 2.385692 -0.337541
v -0.288579 1.241251 0.166573
v 0.245915 1.241251 0.166573
v 0.265847 2.198509 0.166572
v -0.318428 2.198509 0.166572
v -0.288579 1.540562 0.383360
v 0.245915 1.540562 0.383360
v 0.265847 1.851938 0.383360
v -0.318428 1.851938 0.383360
v -0.026303 1.945279 1.192069
v -0.026303 1.913422 0.150935
v 0.029764 1.968502 1.192069
v 0.052290 1.945976 0.150935
v 0.052987 2.024568 1.192069
v 0.084844 2.024568 0.150935
v 0.029764 2.080635 1.192069
v 0.052290 2.103161 0.150935
v -0.026303 2.103858 1.192069
v -0.026303 2.135715 0.150935
v -0.082369 2.080635 1.192069
v -0.104895 2.103161 0.150935
v -0.105592 2.024568 1.192069
v -0.137449 2.024568 0.150935
v -0.082369 1.968502 1.192069
v -0.104895 1.945976 0.150935
v -0.026303 1.913422 1.192069
v 0.052290 1.945976 1.192069
v 0.084844 2.024568 1.192069
v 0.052290 2.103161 1.192069
v -0.026303 2.135715 1.192069
v -0.104895 2.103161 1.192069
v -0.137449 2.024568 1.192069
v -0.104895 1.945976 1.192069
v -0.026303 1.945278 1.595015
v 0.029764 1.968502 1.595015
v 0.052987 2.024568 1.595015
v 0.029764 2.080635 1.595015
v -0.026303 2.103858 1.595015
v -0.082369 2.080635 1.595015
v -0.105592 2.024568 1.595015
v -0.082369 1.968502 1.595015
v -0.026303 1.886188 1.602823
v 0.071547 1.926719 1.602823
v 0.112077 2.024568 1.602823
v 0.071547 2.122418 1.602823
v -0.026303 2.162948 1.602823
v -0.124152 2.122418 1.602823
v -0.164683 2.024568 1.602823
v -0.124152 1.926719 1.602823
v -0.026303 1.926752 2.344040
v 0.042864 1.955402 2.344040
v 0.071513 2.024568 2.344040
v 0.042864 2.093734 2.344040
v -0.026303 2.122384 2.344040
v -0.095469 2.093734 2.344040
v -0.124118 2.024568 2.344040
v -0.095469 1.955402 2.344040
v -0.026303 1.886188 2.344040
v 0.071547 1.926719 2.344040
v 0.112077 2.024568 2.344040
v 0.071547 2.122417 2.344040
v -0.026303 2.162948 2.344040
v -0.124152 2.122417 2.344040
v -0.164683 2.024568 2.344040
v -0.124152 1.926719 2.344040
v -0.026303 1.942028 2.577479
v 0.032062 1.966204 2.577479
v 0.056238 2.024568 2.577479
v 0.032062 2.082933 2.577479
v -0.026303 2.107109 2.577479
v -0.084667 2.082933 2.577479
v -0.108843 2.024568 2.577479
v -0.084668 1.966204 2.577479
v -0.026303 1.926753 2.577479
v 0.042864 1.955402 2.577479
v 0.071513 2.024568 2.577479
v 0.042864 2.093735 2.577479
v -0.026303 2.122384 2.577479
v -0.095469 2.093735 2.577479
v -0.124118 2.024568 2.577479
v -0.095469 1.955402 2.577479
v -0.026303 1.942028 3.608131
v 0.032062 1.966204 3.608131
v 0.056238 2.024568 3.608131
v 0.032062 2.082933 3.608131
v -0.026303 2.107109 3.608131
v -0.084667 2.082933 3.608131
v -0.108843 2.024568 3.608131
v -0.084668 1.966204 3.608131
v -0.026303 1.902808 3.628354
v 0.059795 1.938471 3.628354
v 0.095458 2.024568 3.628354
v 0.059795 2.110667 3.628354
v -0.026303 2.146330 3.628354
v -0.112401 2.110667 3.628354
v -0.148064 2.024568 3.628354
v -0.112401 1.938471 3.628354
v -0.026303 1.897205 3.653634
v 0.063757 1.934509 3.653634
v 0.101061 2.024568 3.653634
v 0.063757 2.114628 3.653634
v -0.026303 2.151932 3.653634
v -0.116362 2.114628 3.653634
v -0.153666 2.024568 3.653634
v -0.116362 1.934509 3.653634
v -0.026303 1.897206 4.361464
v 0.063757 1.934510 4.361464
v 0.101061 2.024569 4.361464
v 0.063757 2.114628 4.361464
v -0.026303 2.151932 4.361464
v -0.116362 2.114628 4.361464
v -0.153666 2.024569 4.361464
v -0.116362 1.934510 4.361464
v -0.026303 1.979552 4.346745
v 0.005529 1.992737 4.346745
v 0.018715 2.024569 4.346745
v 0.005529 2.056401 4.346745
v -0.026303 2.069586 4.346745
v -0.058135 2.056401 4.346745
v -0.071320 2.024569 4.346745
v -0.058135 1.992737 4.346745
v -0.026303 1.920090 4.381687
v 0.047576 1.950691 4.381687
v 0.078177 2.024569 4.381687
v 0.047576 2.098447 4.381687
v -0.026303 2.129049 4.381687
v -0.100181 2.098447 4.381687
v -0.130782 2.024569 4.381687
v -0.100181 1.950691 4.381687
v -0.026303 1.952189 4.381687
v 0.024878 1.973389 4.381687
v 0.046077 2.024569 4.381687
v 0.024878 2.075749 4.381687
v -0.026303 2.096949 4.381687
v -0.077483 2.075749 4.381687
v -0.098682 2.024569 4.381687
v -0.077483 1.973389 4.381687
v -0.341112 2.391702 0.656789
v -1.254943 2.391702 0.656789
v 1.270289 2.391702 0.656789
v 0.298448 2.391702 0.656789
v -0.341112 2.337755 0.856957
v -1.100217 2.337755 0.856957
v 1.115563 2.337755 0.856957
v 0.298448 2.337755 0.856957
v 0.298448 1.193694 1.197662
v 1.270289 1.193694 1.197662
v -1.254943 1.193694 1.197662
v -0.341112 1.193694 1.197662
v 0.298448 1.198716 1.358144
v 1.115563 1.198716 1.358144
v -1.100217 1.198716 1.358144
v -0.341112 1.198716 1.358144
vn -0.7871 -0.0128 -0.6167
vn 0.6575 0.0010 -0.7534
vn 0.8070 -0.0007 -0.5905
vn -0.0633 0.9832 -0.1715
vn -0.0000 -1.0000 -0.0000
vn -0.0000 1.0000 -0.0000
vn 0.6177 -0.0000 -0.7864
vn -0.6014 -0.0000 -0.7989
vn 0.5384 -0.3447 -0.7690
vn -0.0511 -0.9881 0.1452
vn 1.0000 -0.0000 -0.0000
vn -1.0000 -0.0000 -0.0000
vn -0.5578 -0.2962 -0.7754
vn -0.0000 -0.7788 -0.6273
vn -0.0000 -0.0000 -1.0000
vn 0.0599 0.9842 -0.1663
vn -0.0000 0.9913 -0.1318
vn -0.6987 0.0042 -0.7154
vn -0.7403 -0.1192 0.6616
vn -0.0524 0.9874 0.1491
vn -0.9736 -0.0000 0.2282
vn 0.0519 -0.9881 0.1449
vn 0.0533 0.9874 0.1487
vn 0.9773 -0.0000 0.2121
vn -0.0000 -0.0000 1.0000
vn -0.0000 -0.0951 0.9955
vn -0.7912 -0.0000 0.6116
vn -0.0000 -0.6566 -0.7543
vn -0.5826 0.5499 0.5985
vn 0.7912 -0.0000 0.6116
vn -0.0000 0.5974 0.8019
vn -0.0000 0.1018 -0.9948
vn 0.9996 -0.0119 -0.0271
vn 0.9823 -0.0199 -0.1864
vn -0.0000 -0.9988 -0.0499
vn -0.9823 -0.0199 -0.1864
vn -0.9989 -0.0470 -0.0051
vn -0.9990 -0.0179 -0.0406
vn -0.0000 0.9375 0.3481
vn -0.0000 0.5303 0.8478
vn 0.9995 -0.0314 -0.0034
vn -0.0000 -0.5866 0.8099
vn 0.3827 -0.9239 -0.0000
vn 0.9239 -0.3827 -0.0000
vn 0.9239 0.3827 -0.0000
vn 0.3827 0.9239 -0.0000
vn -0.3827 0.9239 -0.0000
vn -0.9239 0.3827 -0.0000
vn -0.9239 -0.3827 -0.0000
vn -0.3827 -0.9239 -0.0000
vn -0.1308 -0.0542 -0.9899
vn -0.0542 0.1308 -0.9899
vn 0.1308 0.0542 -0.9899
vn 0.0542 -0.1308 -0.9899
vn -0.0542 -0.1308 -0.9899
vn -0.1308 0.0542 -0.9899
vn 0.0542 0.1308 -0.9899
vn 0.1308 -0.0542 -0.9899
vn -0.1865 -0.4503 -0.8732
vn -0.3749 0.9051 -0.2006
vn -0.4502 0.1865 -0.8732
vn 0.1865 0.4502 -0.8732
vn 0.4502 -0.1865 -0.8732
vn -0.4502 -0.1865 -0.8732
vn -0.1865 0.4502 -0.8732
vn 0.4502 0.1865 -0.8732
vn 0.1865 -0.4503 -0.8732
vn 0.9051 0.3749 -0.2006
vn 0.3749 -0.9051 -0.2006
vn -0.3749 -0.9051 -0.2006
vn -0.9051 0.3749 -0.2006
vn 0.3749 0.9051 -0.2006
vn 0.9051 -0.3749 -0.2006
vn -0.9051 -0.3749 -0.2006
vn -0.6386 0.2645 0.7226
vn 0.2645 0.6386 0.7226
vn 0.6386 -0.2645 0.7226
vn -0.6386 -0.2645 0.7226
vn -0.2645 0.6386 0.7226
vn 0.6386 0.2645 0.7226
vn 0.2645 -0.6386 0.7226
vn -0.2645 -0.6386 0.7226
vn -0.3100 0.7485 0.5862
vn -0.7485 0.3100 0.5862
vn -0.7485 -0.3100 0.5862
vn -0.3100 -0.7485 0.5862
vn 0.3100 -0.7485 0.5862
vn 0.7485 -0.3100 0.5862
vn 0.7485 0.3101 0.5862
vn 0.3100 0.7485 0.5862
vn -0.0000 0.9655 0.2602
vn -0.0000 0.6566 0.7543
vn 0.5984 0.5260 0.6043
vn -0.0000 -0.9995 0.0313
vn 0.7580 -0.0085 0.6522
vn -0.0000 -0.1040 -0.9946
vn -0.0000 -0.1041 -0.9946
vt 0.233159 0.877690
vt 0.290278 0.877690
vt 0.290278 0.934810
vt 0.233159 0.934810
vt 0.065190 0.877690
vt 0.122310 0.877690
vt 0.122310 0.934810
vt 0.065190 0.934810
vt 0.228967 0.889123
vt 0.278845 0.889123
vt 0.278845 0.939002
vt 0.228967 0.939002
vt 0.060998 0.893030
vt 0.110877 0.893030
vt 0.110877 0.942908
vt 0.060998 0.942908
vt 0.253906 0.939002
vt 0.271541 0.931697
vt 0.278845 0.914062
vt 0.271541 0.896428
vt 0.253906 0.889123
vt 0.236272 0.896428
vt 0.228967 0.914062
vt 0.236272 0.931697
s 1
usemtl Material.007
f 1/1/1 2/2/1 4/3/1 3/4/1
f 17/1/2 20/2/2 8/3/2 7/4/2
f 7/1/3 8/2/3 6/3/3 5/4/3
f 24/5/4 2/6/4 10/7/4 50/8/4
f 17/1/5 7/2/5 5/3/5 22/4/5
f 19/5/6 4/6/6 2/7/6 24/8/6
f 50/5/6 10/6/6 14/7/6 60/8/6
f 5/1/7 6/2/7 11/3/7 12/4/7
f 2/1/8 1/2/8 9/3/8 10/4/8
f 22/1/9 5/2/9 12/3/9 26/4/9
f 58/1/10 16/2/10 36/3/10 37/4/10
f 12/1/11 11/2/11 15/3/11 16/4/11
f 26/1/5 12/2/5 16/3/5 58/4/5
f 10/1/12 9/2/12 13/3/12 14/4/12
f 9/1/5 25/2/5 57/3/5 13/4/5
f 25/1/5 26/2/5 58/3/5 57/4/5
f 59/1/12 58/2/12 37/3/12 40/4/12
f 52/1/12 29/2/12 61/3/12 64/4/12
f 1/1/13 21/2/13 25/3/13 9/4/13
f 21/1/14 22/2/14 26/3/14 25/4/14
f 11/5/6 49/6/6 59/7/6 15/8/6
f 27/1/15 28/2/15 54/3/15 53/4/15
f 8/5/6 20/6/6 23/7/6 6/8/6
f 20/5/6 19/6/6 24/7/6 23/8/6
f 3/1/5 18/2/5 21/3/5 1/4/5
f 18/1/5 17/2/5 22/3/5 21/4/5
f 6/5/16 23/6/16 49/7/16 11/8/16
f 23/5/17 24/6/17 50/7/17 49/8/17
f 3/1/18 4/2/18 19/3/18 18/4/18
f 18/1/15 19/2/15 20/3/15 17/4/15
f 41/1/19 33/2/19 215/3/19 219/4/19
f 40/1/12 37/2/12 45/3/12 48/4/12
f 15/1/20 59/2/20 40/3/20 35/4/20
f 14/1/21 13/2/21 33/3/21 34/4/21
f 13/1/22 57/2/22 39/3/22 33/4/22
f 57/1/11 60/2/11 38/3/11 39/4/11
f 60/1/23 14/2/23 34/3/23 38/4/23
f 16/1/24 15/2/24 35/3/24 36/4/24
f 47/1/25 46/2/25 42/3/25 41/4/25
f 44/1/25 43/2/25 48/3/25 45/4/25
f 44/1/26 45/2/26 217/3/26 218/4/26
f 34/1/27 33/2/27 41/3/27 42/4/27
f 39/1/11 38/2/11 46/3/11 47/4/11
f 35/1/28 40/2/28 208/3/28 207/4/28
f 34/5/29 42/6/29 210/7/29 206/8/29
f 36/1/30 35/2/30 43/3/30 44/4/30
f 28/1/6 27/2/6 49/3/6 50/4/6
f 31/1/6 32/2/6 60/3/6 59/4/6
f 27/1/6 31/2/6 59/3/6 49/4/6
f 32/1/6 28/2/6 50/3/6 60/4/6
f 53/5/6 54/6/6 56/7/6 55/8/6
f 28/1/12 32/2/12 56/3/12 54/4/12
f 32/1/31 31/2/31 55/3/31 56/4/31
f 31/1/11 27/2/11 53/3/11 55/4/11
f 30/1/25 29/2/25 57/3/25 58/4/25
f 52/1/25 51/2/25 59/3/25 60/4/25
f 51/1/25 30/2/25 58/3/25 59/4/25
f 29/1/25 52/2/25 60/3/25 57/4/25
f 63/1/32 64/2/32 68/3/32 67/4/32
f 51/1/6 52/2/6 64/3/6 63/4/6
f 30/1/11 51/2/11 63/3/11 62/4/11
f 29/1/5 30/2/5 62/3/5 61/4/5
f 66/1/33 67/2/33 71/3/33 70/4/33
f 62/1/34 63/2/34 67/3/34 66/4/34
f 61/1/35 62/2/35 66/3/35 65/4/35
f 64/1/36 61/2/36 65/3/36 68/4/36
f 72/1/37 69/2/37 73/3/37 76/4/37
f 65/1/5 66/2/5 70/3/5 69/4/5
f 68/1/38 65/2/38 69/3/38 72/4/38
f 67/5/39 68/6/39 72/7/39 71/8/39
f 74/1/25 75/2/25 76/3/25 73/4/25
f 71/1/40 72/2/40 76/3/40 75/4/40
f 70/1/41 71/2/41 75/3/41 74/4/41
f 69/1/42 70/2/42 74/3/42 73/4/42
f 93/9/43 78/10/43 80/11/43 94/12/43
f 94/9/44 80/10/44 82/11/44 95/12/44
f 95/9/45 82/10/45 84/11/45 96/12/45
f 96/13/46 84/14/46 86/15/46 97/16/46
f 97/13/47 86/14/47 88/15/47 98/16/47
f 98/9/48 88/10/48 90/11/48 99/12/48
f 80/17/15 78/18/15 92/19/15 90/20/15 88/21/15 86/22/15 84/23/15 82/24/15
f 99/9/49 90/10/49 92/11/49 100/12/49
f 100/9/50 92/10/50 78/11/50 93/12/50
f 77/9/43 79/10/43 102/11/43 101/12/43
f 79/9/25 77/10/25 93/11/25 94/12/25
f 81/9/25 79/10/25 94/11/25 95/12/25
f 83/9/25 81/10/25 95/11/25 96/12/25
f 85/9/25 83/10/25 96/11/25 97/12/25
f 87/9/25 85/10/25 97/11/25 98/12/25
f 89/9/25 87/10/25 98/11/25 99/12/25
f 91/9/25 89/10/25 99/11/25 100/12/25
f 77/9/25 91/10/25 100/11/25 93/12/25
f 107/9/51 108/10/51 116/11/51 115/12/51
f 91/9/50 77/10/50 101/11/50 108/12/50
f 87/9/48 89/10/48 107/11/48 106/12/48
f 83/9/46 85/10/46 105/11/46 104/12/46
f 79/9/44 81/10/44 103/11/44 102/12/44
f 89/9/49 91/10/49 108/11/49 107/12/49
f 85/9/47 87/10/47 106/11/47 105/12/47
f 81/9/45 83/10/45 104/11/45 103/12/45
f 110/9/44 111/10/44 127/11/44 126/12/44
f 105/9/52 106/10/52 114/11/52 113/12/52
f 103/9/53 104/10/53 112/11/53 111/12/53
f 101/9/54 102/10/54 110/11/54 109/12/54
f 108/9/55 101/10/55 109/11/55 116/12/55
f 106/9/56 107/10/56 115/11/56 114/12/56
f 104/9/57 105/10/57 113/11/57 112/12/57
f 102/9/58 103/10/58 111/11/58 110/12/58
f 119/9/45 120/10/45 144/11/45 143/12/45
f 115/9/49 116/10/49 132/11/49 131/12/49
f 113/13/47 114/14/47 130/15/47 129/16/47
f 111/9/45 112/10/45 128/11/45 127/12/45
f 109/9/43 110/10/43 126/11/43 125/12/43
f 116/9/50 109/10/50 125/11/50 132/12/50
f 114/9/48 115/10/48 131/11/48 130/12/48
f 112/13/46 113/14/46 129/15/46 128/16/46
f 118/9/25 117/10/25 125/11/25 126/12/25
f 119/9/25 118/10/25 126/11/25 127/12/25
f 120/9/25 119/10/25 127/11/25 128/12/25
f 121/9/25 120/10/25 128/11/25 129/12/25
f 122/9/25 121/10/25 129/11/25 130/12/25
f 123/9/25 122/10/25 130/11/25 131/12/25
f 124/9/25 123/10/25 131/11/25 132/12/25
f 117/9/25 124/10/25 132/11/25 125/12/25
f 136/9/46 137/10/46 153/11/46 152/12/46
f 117/9/43 118/10/43 142/11/43 141/12/43
f 124/9/50 117/10/50 141/11/50 148/12/50
f 122/9/48 123/10/48 147/11/48 146/12/48
f 120/13/46 121/14/46 145/15/46 144/16/46
f 118/9/44 119/10/44 143/11/44 142/12/44
f 123/9/49 124/10/49 148/11/49 147/12/49
f 121/13/47 122/14/47 146/15/47 145/16/47
f 134/9/25 133/10/25 141/11/25 142/12/25
f 135/9/25 134/10/25 142/11/25 143/12/25
f 136/9/25 135/10/25 143/11/25 144/12/25
f 137/9/25 136/10/25 144/11/25 145/12/25
f 138/9/25 137/10/25 145/11/25 146/12/25
f 139/9/25 138/10/25 146/11/25 147/12/25
f 140/9/25 139/10/25 147/11/25 148/12/25
f 133/9/25 140/10/25 148/11/25 141/12/25
f 156/9/59 149/10/59 157/11/59 164/12/59
f 134/9/44 135/10/44 151/11/44 150/12/44
f 139/9/49 140/10/49 156/11/49 155/12/49
f 137/9/47 138/10/47 154/11/47 153/12/47
f 135/9/45 136/10/45 152/11/45 151/12/45
f 133/9/43 134/10/43 150/11/43 149/12/43
f 140/9/50 133/10/50 149/11/50 156/12/50
f 138/9/48 139/10/48 155/11/48 154/12/48
f 161/9/60 162/10/60 170/11/60 169/12/60
f 154/9/61 155/10/61 163/11/61 162/12/61
f 152/9/62 153/10/62 161/11/62 160/12/62
f 150/9/63 151/10/63 159/11/63 158/12/63
f 155/9/64 156/10/64 164/11/64 163/12/64
f 153/9/65 154/10/65 162/11/65 161/12/65
f 151/9/66 152/10/66 160/11/66 159/12/66
f 149/9/67 150/10/67 158/11/67 157/12/67
f 171/9/49 172/10/49 180/11/49 179/12/49
f 159/9/68 160/10/68 168/11/68 167/12/68
f 157/9/69 158/10/69 166/11/69 165/12/69
f 164/9/70 157/10/70 165/11/70 172/12/70
f 162/9/71 163/10/71 171/11/71 170/12/71
f 160/9/72 161/10/72 169/11/72 168/12/72
f 158/9/73 159/10/73 167/11/73 166/12/73
f 163/9/74 164/10/74 172/11/74 171/12/74
f 178/9/75 179/10/75 195/11/75 194/12/75
f 169/13/47 170/14/47 178/15/47 177/16/47
f 167/9/45 168/10/45 176/11/45 175/12/45
f 165/9/43 166/10/43 174/11/43 173/12/43
f 172/9/50 165/10/50 173/11/50 180/12/50
f 170/9/48 171/10/48 179/11/48 178/12/48
f 168/13/46 169/14/46 177/15/46 176/16/46
f 166/9/44 167/10/44 175/11/44 174/12/44
f 181/17/25 182/18/25 183/19/25 184/20/25 185/21/25 186/22/25 187/23/25 188/24/25
f 176/9/76 177/10/76 193/11/76 192/12/76
f 174/9/77 175/10/77 191/11/77 190/12/77
f 179/9/78 180/10/78 196/11/78 195/12/78
f 177/9/79 178/10/79 194/11/79 193/12/79
f 175/9/80 176/10/80 192/11/80 191/12/80
f 173/9/81 174/10/81 190/11/81 189/12/81
f 180/9/82 173/10/82 189/11/82 196/12/82
f 198/9/25 197/10/25 189/11/25 190/12/25
f 199/9/25 198/10/25 190/11/25 191/12/25
f 200/9/25 199/10/25 191/11/25 192/12/25
f 201/9/25 200/10/25 192/11/25 193/12/25
f 202/9/25 201/10/25 193/11/25 194/12/25
f 203/9/25 202/10/25 194/11/25 195/12/25
f 204/9/25 203/10/25 195/11/25 196/12/25
f 197/9/25 204/10/25 196/11/25 189/12/25
f 182/9/83 181/10/83 197/11/83 198/12/83
f 183/9/84 182/10/84 198/11/84 199/12/84
f 184/9/85 183/10/85 199/11/85 200/12/85
f 185/9/86 184/10/86 200/11/86 201/12/86
f 186/9/87 185/10/87 201/11/87 202/12/87
f 187/9/88 186/10/88 202/11/88 203/12/88
f 188/9/89 187/10/89 203/11/89 204/12/89
f 181/9/90 188/10/90 204/11/90 197/12/90
f 207/5/91 208/6/91 212/7/91 211/8/91
f 205/5/91 206/6/91 210/7/91 209/8/91
f 40/1/12 48/2/12 212/3/12 208/4/12
f 38/1/28 34/2/28 206/3/28 205/4/28
f 48/5/92 43/6/92 211/7/92 212/8/92
f 46/1/11 38/2/11 205/3/11 209/4/11
f 42/5/92 46/6/92 209/7/92 210/8/92
f 43/5/93 35/6/93 207/7/93 211/8/93
f 215/1/94 216/2/94 220/3/94 219/4/94
f 213/1/94 214/2/94 218/3/94 217/4/94
f 36/1/95 44/2/95 218/3/95 214/4/95
f 39/1/11 47/2/11 220/3/11 216/4/11
f 33/1/96 39/2/96 216/3/96 215/4/96
f 45/1/12 37/2/12 213/3/12 217/4/12
f 37/1/97 36/2/97 214/3/97 213/4/97
f 47/1/26 41/2/26 219/3/26 220/4/26
