# Blender 4.1.1
# www.blender.org
mtllib cannon1.mtl
o turret01.001
v 0.262900 0.187371 -0.201271
v -0.271594 0.187371 -0.201271
v 0.262900 0.187371 0.111719
v -0.271594 0.187371 0.111719
v 0.262900 -0.159199 0.328507
v -0.271594 -0.159199 0.328507
v 0.124972 -0.115063 0.918334
v 0.124972 -0.137636 0.230904
v 0.164700 -0.098607 0.918334
v 0.180661 -0.114569 0.230904
v 0.181155 -0.058879 0.918334
v 0.203729 -0.058880 0.230904
v 0.164700 -0.019152 0.918334
v 0.180661 -0.003190 0.230904
v 0.124972 -0.002696 0.918334
v 0.124972 0.019877 0.230904
v 0.085245 -0.019152 0.918334
v 0.069283 -0.003190 0.230904
v 0.068789 -0.058879 0.918334
v 0.046216 -0.058880 0.230904
v 0.085245 -0.098607 0.918334
v 0.069283 -0.114569 0.230904
v 0.124972 -0.137636 0.918334
v 0.180661 -0.114569 0.918334
v 0.203729 -0.058880 0.918334
v 0.180661 -0.003190 0.918334
v 0.124972 0.019877 0.918334
v 0.069283 -0.003190 0.918334
v 0.046216 -0.058880 0.918334
v 0.069283 -0.114569 0.918334
v 0.124972 -0.115063 1.184388
v 0.164700 -0.098607 1.184388
v 0.181155 -0.058880 1.184388
v 0.164700 -0.019152 1.184388
v 0.124972 -0.002696 1.184388
v 0.085245 -0.019152 1.184388
v 0.068789 -0.058880 1.184388
v 0.085245 -0.098607 1.184388
v 0.124972 -0.156933 1.189543
v 0.194307 -0.128214 1.189543
v 0.223026 -0.058880 1.189543
v 0.194306 0.010455 1.189543
v 0.124972 0.039174 1.189543
v 0.055638 0.010455 1.189543
v 0.026919 -0.058880 1.189543
v 0.055638 -0.128214 1.189543
v 0.124972 -0.128190 1.678948
v 0.173982 -0.107890 1.678948
v 0.194283 -0.058880 1.678948
v 0.173982 -0.009870 1.678948
v 0.124972 0.010431 1.678948
v 0.075962 -0.009870 1.678948
v 0.055662 -0.058880 1.678948
v 0.075962 -0.107890 1.678948
v 0.124972 -0.156933 1.678948
v 0.194307 -0.128214 1.678948
v 0.223026 -0.058880 1.678948
v 0.194306 0.010455 1.678948
v 0.124972 0.039174 1.678948
v 0.055638 0.010455 1.678948
v 0.026919 -0.058880 1.678948
v 0.055638 -0.128214 1.678948
v 0.124972 -0.117366 1.833081
v 0.166329 -0.100236 1.833081
v 0.183459 -0.058880 1.833081
v 0.166328 -0.017523 1.833081
v 0.124972 -0.000393 1.833081
v 0.083616 -0.017523 1.833081
v 0.066486 -0.058880 1.833081
v 0.083616 -0.100236 1.833081
v 0.124972 -0.128190 1.833081
v 0.173982 -0.107889 1.833081
v 0.194283 -0.058880 1.833081
v 0.173982 -0.009869 1.833081
v 0.124972 0.010431 1.833081
v 0.075962 -0.009869 1.833081
v 0.055662 -0.058880 1.833081
v 0.075962 -0.107889 1.833081
v 0.124972 -0.117366 2.513591
v 0.166329 -0.100236 2.513591
v 0.183459 -0.058880 2.513591
v 0.166328 -0.017523 2.513591
v 0.124972 -0.000393 2.513591
v 0.083616 -0.017523 2.513591
v 0.066486 -0.058880 2.513591
v 0.083616 -0.100236 2.513591
v 0.124972 -0.145157 2.526943
v 0.185980 -0.119887 2.526943
v 0.211250 -0.058880 2.526943
v 0.185980 0.002128 2.526943
v 0.124972 0.027398 2.526943
v 0.063965 0.002128 2.526943
v 0.038695 -0.058880 2.526943
v 0.063965 -0.119887 2.526943
v 0.124972 -0.149126 2.543635
v 0.188787 -0.122694 2.543635
v 0.215219 -0.058880 2.543635
v 0.188787 0.004935 2.543635
v 0.124972 0.031368 2.543635
v 0.061158 0.004935 2.543635
v 0.034725 -0.058880 2.543635
v 0.061158 -0.122694 2.543635
v 0.124972 -0.149126 3.010994
v 0.188787 -0.122693 3.010994
v 0.215219 -0.058879 3.010994
v 0.188787 0.004935 3.010994
v 0.124972 0.031368 3.010994
v 0.061158 0.004935 3.010994
v 0.034725 -0.058879 3.010994
v 0.061158 -0.122693 3.010994
v 0.124972 -0.090777 3.001276
v 0.147528 -0.081435 3.001276
v 0.156871 -0.058879 3.001276
v 0.147528 -0.036323 3.001276
v 0.124972 -0.026981 3.001276
v 0.102417 -0.036323 3.001276
v 0.093074 -0.058879 3.001276
v 0.102417 -0.081435 3.001276
v 0.124972 -0.132911 3.024347
v 0.177321 -0.111228 3.024347
v 0.199004 -0.058879 3.024347
v 0.177321 -0.006530 3.024347
v 0.124972 0.015153 3.024347
v 0.072624 -0.006530 3.024347
v 0.050940 -0.058879 3.024347
v 0.072623 -0.111228 3.024347
v 0.124972 -0.110166 3.024347
v 0.161238 -0.095144 3.024347
v 0.176259 -0.058879 3.024347
v 0.161237 -0.022614 3.024347
v 0.124972 -0.007592 3.024347
v 0.088707 -0.022614 3.024347
v 0.073685 -0.058879 3.024347
v 0.088707 -0.095144 3.024347
v -0.129805 -0.115063 0.918334
v -0.129805 -0.137636 0.230904
v -0.090078 -0.098607 0.918334
v -0.074116 -0.114569 0.230904
v -0.073622 -0.058879 0.918334
v -0.051049 -0.058880 0.230904
v -0.090078 -0.019152 0.918334
v -0.074116 -0.003190 0.230904
v -0.129805 -0.002696 0.918334
v -0.129805 0.019877 0.230904
v -0.169533 -0.019152 0.918334
v -0.185495 -0.003190 0.230904
v -0.185989 -0.058879 0.918334
v -0.208562 -0.058880 0.230904
v -0.169533 -0.098607 0.918334
v -0.185495 -0.114569 0.230904
v -0.129805 -0.137636 0.918334
v -0.074116 -0.114569 0.918334
v -0.051049 -0.058880 0.918334
v -0.074116 -0.003190 0.918334
v -0.129805 0.019877 0.918334
v -0.185495 -0.003190 0.918334
v -0.208562 -0.058880 0.918334
v -0.185495 -0.114569 0.918334
v -0.129805 -0.115063 1.184388
v -0.090078 -0.098607 1.184388
v -0.073622 -0.058880 1.184388
v -0.090078 -0.019152 1.184388
v -0.129805 -0.002696 1.184388
v -0.169533 -0.019152 1.184388
v -0.185989 -0.058880 1.184388
v -0.169533 -0.098607 1.184388
v -0.129805 -0.156933 1.189543
v -0.060471 -0.128214 1.189543
v -0.031752 -0.058880 1.189543
v -0.060471 0.010455 1.189543
v -0.129805 0.039174 1.189543
v -0.199140 0.010455 1.189543
v -0.227859 -0.058880 1.189543
v -0.199140 -0.128214 1.189543
v -0.129805 -0.128190 1.678948
v -0.080795 -0.107890 1.678948
v -0.060495 -0.058880 1.678948
v -0.080796 -0.009870 1.678948
v -0.129805 0.010431 1.678948
v -0.178815 -0.009870 1.678948
v -0.199116 -0.058880 1.678948
v -0.178815 -0.107890 1.678948
v -0.129805 -0.156933 1.678948
v -0.060471 -0.128214 1.678948
v -0.031752 -0.058880 1.678948
v -0.060471 0.010455 1.678948
v -0.129805 0.039174 1.678948
v -0.199140 0.010455 1.678948
v -0.227859 -0.058880 1.678948
v -0.199140 -0.128214 1.678948
v -0.129805 -0.117366 1.833081
v -0.088449 -0.100236 1.833081
v -0.071319 -0.058880 1.833081
v -0.088449 -0.017523 1.833081
v -0.129805 -0.000393 1.833081
v -0.171162 -0.017523 1.833081
v -0.188292 -0.058880 1.833081
v -0.171162 -0.100236 1.833081
v -0.129805 -0.128190 1.833081
v -0.080795 -0.107889 1.833081
v -0.060495 -0.058880 1.833081
v -0.080796 -0.009869 1.833081
v -0.129805 0.010431 1.833081
v -0.178815 -0.009869 1.833081
v -0.199116 -0.058880 1.833081
v -0.178815 -0.107889 1.833081
v -0.129805 -0.117366 2.513591
v -0.088449 -0.100236 2.513591
v -0.071319 -0.058880 2.513591
v -0.088449 -0.017523 2.513591
v -0.129805 -0.000393 2.513591
v -0.171162 -0.017523 2.513591
v -0.188292 -0.058880 2.513591
v -0.171162 -0.100236 2.513591
v -0.129805 -0.145157 2.526943
v -0.068798 -0.119887 2.526943
v -0.043528 -0.058880 2.526943
v -0.068798 0.002128 2.526943
v -0.129805 0.027398 2.526943
v -0.190813 0.002128 2.526943
v -0.216083 -0.058880 2.526943
v -0.190813 -0.119887 2.526943
v -0.129805 -0.149126 2.543635
v -0.065991 -0.122694 2.543635
v -0.039558 -0.058880 2.543635
v -0.065991 0.004935 2.543635
v -0.129805 0.031368 2.543635
v -0.193620 0.004935 2.543635
v -0.220053 -0.058880 2.543635
v -0.193620 -0.122694 2.543635
v -0.129805 -0.149126 3.010994
v -0.065991 -0.122693 3.010994
v -0.039558 -0.058879 3.010994
v -0.065991 0.004935 3.010994
v -0.129805 0.031368 3.010994
v -0.193620 0.004935 3.010994
v -0.220053 -0.058879 3.010994
v -0.193620 -0.122693 3.010994
v -0.129805 -0.090777 3.001276
v -0.107250 -0.081435 3.001276
v -0.097907 -0.058879 3.001276
v -0.107250 -0.036323 3.001276
v -0.129805 -0.026981 3.001276
v -0.152361 -0.036323 3.001276
v -0.161704 -0.058879 3.001276
v -0.152361 -0.081435 3.001276
v -0.129805 -0.132911 3.024347
v -0.077457 -0.111228 3.024347
v -0.055773 -0.058879 3.024347
v -0.077457 -0.006530 3.024347
v -0.129805 0.015153 3.024347
v -0.182154 -0.006530 3.024347
v -0.203838 -0.058879 3.024347
v -0.182154 -0.111228 3.024347
v -0.129805 -0.110166 3.024347
v -0.093540 -0.095144 3.024347
v -0.078519 -0.058879 3.024347
v -0.093540 -0.022614 3.024347
v -0.129805 -0.007592 3.024347
v -0.166071 -0.022614 3.024347
v -0.181092 -0.058879 3.024347
v -0.166071 -0.095144 3.024347
v 0.262900 0.187371 -0.201271
v -0.271594 0.187371 -0.201271
v 0.262900 -0.193364 -0.201271
v -0.271594 -0.193364 -0.201271
vn -0.0000 1.0000 -0.0000
vn -0.0000 0.5303 0.8478
vn 0.3827 -0.9239 -0.0000
vn 0.9239 -0.3827 -0.0000
vn 0.9239 0.3827 -0.0000
vn 0.3827 0.9239 -0.0000
vn -0.3827 0.9239 -0.0000
vn -0.9239 0.3827 -0.0000
vn -0.0000 -0.0000 -1.0000
vn -0.9239 -0.3827 -0.0000
vn -0.3827 -0.9239 -0.0000
vn -0.0000 -0.0000 1.0000
vn -0.1220 -0.0506 -0.9912
vn -0.0506 0.1220 -0.9912
vn 0.1220 0.0505 -0.9912
vn 0.0505 -0.1220 -0.9912
vn -0.0506 -0.1220 -0.9912
vn -0.1220 0.0505 -0.9912
vn 0.0506 0.1220 -0.9912
vn 0.1220 -0.0505 -0.9912
vn -0.1766 -0.4263 -0.8872
vn -0.3738 0.9024 -0.2146
vn -0.4263 0.1766 -0.8872
vn 0.1766 0.4263 -0.8872
vn 0.4263 -0.1766 -0.8872
vn -0.4263 -0.1766 -0.8872
vn -0.1766 0.4263 -0.8872
vn 0.4262 0.1766 -0.8872
vn 0.1766 -0.4263 -0.8872
vn 0.9024 0.3738 -0.2146
vn 0.3738 -0.9024 -0.2146
vn -0.3738 -0.9024 -0.2146
vn -0.9024 0.3738 -0.2146
vn 0.3738 0.9024 -0.2146
vn 0.9024 -0.3738 -0.2146
vn -0.9024 -0.3738 -0.2146
vn -0.6147 0.2546 0.7465
vn 0.2546 0.6147 0.7465
vn 0.6147 -0.2546 0.7465
vn -0.6148 -0.2546 0.7465
vn -0.2546 0.6147 0.7465
vn 0.6147 0.2546 0.7465
vn 0.2546 -0.6147 0.7465
vn -0.2546 -0.6148 0.7465
vn -0.3023 0.7298 0.6133
vn -0.7298 0.3023 0.6133
vn -0.7298 -0.3023 0.6133
vn -0.3023 -0.7298 0.6133
vn 0.3023 -0.7297 0.6133
vn 0.7297 -0.3023 0.6133
vn 0.7297 0.3023 0.6133
vn 0.3023 0.7298 0.6133
vn -0.0505 0.1220 -0.9912
vn 0.0506 -0.1220 -0.9912
vn -0.0505 -0.1220 -0.9912
vn 0.1220 -0.0506 -0.9912
vn 0.4263 0.1766 -0.8872
vn -0.6147 -0.2546 0.7465
vn -0.3023 -0.7297 0.6133
vn 0.3023 -0.7298 0.6133
vn 0.7298 -0.3023 0.6133
vn 0.7298 0.3023 0.6133
vn -0.6922 -0.7202 0.0465
vn 0.6922 -0.7202 0.0464
vn 0.5652 -0.8232 0.0531
vn -0.5652 -0.8232 0.0531
vn -0.6922 -0.7202 0.0464
vn -1.0000 -0.0000 -0.0000
vn 1.0000 -0.0000 -0.0000
vt 0.049991 0.885928
vt 0.114072 0.885928
vt 0.114072 0.950009
vt 0.049991 0.950009
vt 0.221866 0.885928
vt 0.285947 0.885928
vt 0.285947 0.950009
vt 0.221866 0.950009
vt 0.253906 0.950009
vt 0.276562 0.940625
vt 0.285947 0.917969
vt 0.276562 0.895313
vt 0.253906 0.885928
vt 0.231250 0.895313
vt 0.221866 0.917969
vt 0.231250 0.940625
s 1
usemtl Material.001
f 1/1/1 2/2/1 4/3/1 3/4/1
f 3/1/2 4/2/2 6/3/2 5/4/2
f 23/5/3 8/6/3 10/7/3 24/8/3
f 24/5/4 10/6/4 12/7/4 25/8/4
f 25/5/5 12/6/5 14/7/5 26/8/5
f 26/1/6 14/2/6 16/3/6 27/4/6
f 27/1/7 16/2/7 18/3/7 28/4/7
f 28/5/8 18/6/8 20/7/8 29/8/8
f 10/9/9 8/10/9 22/11/9 20/12/9 18/13/9 16/14/9 14/15/9 12/16/9
f 29/5/10 20/6/10 22/7/10 30/8/10
f 30/5/11 22/6/11 8/7/11 23/8/11
f 7/5/3 9/6/3 32/7/3 31/8/3
f 9/5/12 7/6/12 23/7/12 24/8/12
f 11/5/12 9/6/12 24/7/12 25/8/12
f 13/5/12 11/6/12 25/7/12 26/8/12
f 15/5/12 13/6/12 26/7/12 27/8/12
f 17/5/12 15/6/12 27/7/12 28/8/12
f 19/5/12 17/6/12 28/7/12 29/8/12
f 21/5/12 19/6/12 29/7/12 30/8/12
f 7/5/12 21/6/12 30/7/12 23/8/12
f 37/5/13 38/6/13 46/7/13 45/8/13
f 21/5/11 7/6/11 31/7/11 38/8/11
f 17/5/8 19/6/8 37/7/8 36/8/8
f 13/5/6 15/6/6 35/7/6 34/8/6
f 9/5/4 11/6/4 33/7/4 32/8/4
f 19/5/10 21/6/10 38/7/10 37/8/10
f 15/5/7 17/6/7 36/7/7 35/8/7
f 11/5/5 13/6/5 34/7/5 33/8/5
f 40/5/4 41/6/4 57/7/4 56/8/4
f 35/5/14 36/6/14 44/7/14 43/8/14
f 33/5/15 34/6/15 42/7/15 41/8/15
f 31/5/16 32/6/16 40/7/16 39/8/16
f 38/5/17 31/6/17 39/7/17 46/8/17
f 36/5/18 37/6/18 45/7/18 44/8/18
f 34/5/19 35/6/19 43/7/19 42/8/19
f 32/5/20 33/6/20 41/7/20 40/8/20
f 49/5/5 50/6/5 74/7/5 73/8/5
f 45/5/10 46/6/10 62/7/10 61/8/10
f 43/1/7 44/2/7 60/3/7 59/4/7
f 41/5/5 42/6/5 58/7/5 57/8/5
f 39/5/3 40/6/3 56/7/3 55/8/3
f 46/5/11 39/6/11 55/7/11 62/8/11
f 44/5/8 45/6/8 61/7/8 60/8/8
f 42/1/6 43/2/6 59/3/6 58/4/6
f 48/5/12 47/6/12 55/7/12 56/8/12
f 49/5/12 48/6/12 56/7/12 57/8/12
f 50/5/12 49/6/12 57/7/12 58/8/12
f 51/5/12 50/6/12 58/7/12 59/8/12
f 52/5/12 51/6/12 59/7/12 60/8/12
f 53/5/12 52/6/12 60/7/12 61/8/12
f 54/5/12 53/6/12 61/7/12 62/8/12
f 47/5/12 54/6/12 62/7/12 55/8/12
f 66/5/6 67/6/6 83/7/6 82/8/6
f 47/5/3 48/6/3 72/7/3 71/8/3
f 54/5/11 47/6/11 71/7/11 78/8/11
f 52/5/8 53/6/8 77/7/8 76/8/8
f 50/1/6 51/2/6 75/3/6 74/4/6
f 48/5/4 49/6/4 73/7/4 72/8/4
f 53/5/10 54/6/10 78/7/10 77/8/10
f 51/1/7 52/2/7 76/3/7 75/4/7
f 64/5/12 63/6/12 71/7/12 72/8/12
f 65/5/12 64/6/12 72/7/12 73/8/12
f 66/5/12 65/6/12 73/7/12 74/8/12
f 67/5/12 66/6/12 74/7/12 75/8/12
f 68/5/12 67/6/12 75/7/12 76/8/12
f 69/5/12 68/6/12 76/7/12 77/8/12
f 70/5/12 69/6/12 77/7/12 78/8/12
f 63/5/12 70/6/12 78/7/12 71/8/12
f 86/5/21 79/6/21 87/7/21 94/8/21
f 64/5/4 65/6/4 81/7/4 80/8/4
f 69/5/10 70/6/10 86/7/10 85/8/10
f 67/5/7 68/6/7 84/7/7 83/8/7
f 65/5/5 66/6/5 82/7/5 81/8/5
f 63/5/3 64/6/3 80/7/3 79/8/3
f 70/5/11 63/6/11 79/7/11 86/8/11
f 68/5/8 69/6/8 85/7/8 84/8/8
f 91/5/22 92/6/22 100/7/22 99/8/22
f 84/5/23 85/6/23 93/7/23 92/8/23
f 82/5/24 83/6/24 91/7/24 90/8/24
f 80/5/25 81/6/25 89/7/25 88/8/25
f 85/5/26 86/6/26 94/7/26 93/8/26
f 83/5/27 84/6/27 92/7/27 91/8/27
f 81/5/28 82/6/28 90/7/28 89/8/28
f 79/5/29 80/6/29 88/7/29 87/8/29
f 101/5/10 102/6/10 110/7/10 109/8/10
f 89/5/30 90/6/30 98/7/30 97/8/30
f 87/5/31 88/6/31 96/7/31 95/8/31
f 94/5/32 87/6/32 95/7/32 102/8/32
f 92/5/33 93/6/33 101/7/33 100/8/33
f 90/5/34 91/6/34 99/7/34 98/8/34
f 88/5/35 89/6/35 97/7/35 96/8/35
f 93/5/36 94/6/36 102/7/36 101/8/36
f 108/5/37 109/6/37 125/7/37 124/8/37
f 99/1/7 100/2/7 108/3/7 107/4/7
f 97/5/5 98/6/5 106/7/5 105/8/5
f 95/5/3 96/6/3 104/7/3 103/8/3
f 102/5/11 95/6/11 103/7/11 110/8/11
f 100/5/8 101/6/8 109/7/8 108/8/8
f 98/1/6 99/2/6 107/3/6 106/4/6
f 96/5/4 97/6/4 105/7/4 104/8/4
f 111/9/12 112/10/12 113/11/12 114/12/12 115/13/12 116/14/12 117/15/12 118/16/12
f 106/5/38 107/6/38 123/7/38 122/8/38
f 104/5/39 105/6/39 121/7/39 120/8/39
f 109/5/40 110/6/40 126/7/40 125/8/40
f 107/5/41 108/6/41 124/7/41 123/8/41
f 105/5/42 106/6/42 122/7/42 121/8/42
f 103/5/43 104/6/43 120/7/43 119/8/43
f 110/5/44 103/6/44 119/7/44 126/8/44
f 128/5/12 127/6/12 119/7/12 120/8/12
f 129/5/12 128/6/12 120/7/12 121/8/12
f 130/5/12 129/6/12 121/7/12 122/8/12
f 131/5/12 130/6/12 122/7/12 123/8/12
f 132/5/12 131/6/12 123/7/12 124/8/12
f 133/5/12 132/6/12 124/7/12 125/8/12
f 134/5/12 133/6/12 125/7/12 126/8/12
f 127/5/12 134/6/12 126/7/12 119/8/12
f 112/5/45 111/6/45 127/7/45 128/8/45
f 113/5/46 112/6/46 128/7/46 129/8/46
f 114/5/47 113/6/47 129/7/47 130/8/47
f 115/5/48 114/6/48 130/7/48 131/8/48
f 116/5/49 115/6/49 131/7/49 132/8/49
f 117/5/50 116/6/50 132/7/50 133/8/50
f 118/5/51 117/6/51 133/7/51 134/8/51
f 111/5/52 118/6/52 134/7/52 127/8/52
f 151/5/3 136/6/3 138/7/3 152/8/3
f 152/5/4 138/6/4 140/7/4 153/8/4
f 153/5/5 140/6/5 142/7/5 154/8/5
f 154/1/6 142/2/6 144/3/6 155/4/6
f 155/1/7 144/2/7 146/3/7 156/4/7
f 156/5/8 146/6/8 148/7/8 157/8/8
f 138/9/9 136/10/9 150/11/9 148/12/9 146/13/9 144/14/9 142/15/9 140/16/9
f 157/5/10 148/6/10 150/7/10 158/8/10
f 158/5/11 150/6/11 136/7/11 151/8/11
f 135/5/3 137/6/3 160/7/3 159/8/3
f 137/5/12 135/6/12 151/7/12 152/8/12
f 139/5/12 137/6/12 152/7/12 153/8/12
f 141/5/12 139/6/12 153/7/12 154/8/12
f 143/5/12 141/6/12 154/7/12 155/8/12
f 145/5/12 143/6/12 155/7/12 156/8/12
f 147/5/12 145/6/12 156/7/12 157/8/12
f 149/5/12 147/6/12 157/7/12 158/8/12
f 135/5/12 149/6/12 158/7/12 151/8/12
f 165/5/13 166/6/13 174/7/13 173/8/13
f 149/5/11 135/6/11 159/7/11 166/8/11
f 145/5/8 147/6/8 165/7/8 164/8/8
f 141/5/6 143/6/6 163/7/6 162/8/6
f 137/5/4 139/6/4 161/7/4 160/8/4
f 147/5/10 149/6/10 166/7/10 165/8/10
f 143/5/7 145/6/7 164/7/7 163/8/7
f 139/5/5 141/6/5 162/7/5 161/8/5
f 168/5/4 169/6/4 185/7/4 184/8/4
f 163/5/53 164/6/53 172/7/53 171/8/53
f 161/5/15 162/6/15 170/7/15 169/8/15
f 159/5/54 160/6/54 168/7/54 167/8/54
f 166/5/55 159/6/55 167/7/55 174/8/55
f 164/5/18 165/6/18 173/7/18 172/8/18
f 162/5/19 163/6/19 171/7/19 170/8/19
f 160/5/56 161/6/56 169/7/56 168/8/56
f 177/5/5 178/6/5 202/7/5 201/8/5
f 173/5/10 174/6/10 190/7/10 189/8/10
f 171/1/7 172/2/7 188/3/7 187/4/7
f 169/5/5 170/6/5 186/7/5 185/8/5
f 167/5/3 168/6/3 184/7/3 183/8/3
f 174/5/11 167/6/11 183/7/11 190/8/11
f 172/5/8 173/6/8 189/7/8 188/8/8
f 170/1/6 171/2/6 187/3/6 186/4/6
f 176/5/12 175/6/12 183/7/12 184/8/12
f 177/5/12 176/6/12 184/7/12 185/8/12
f 178/5/12 177/6/12 185/7/12 186/8/12
f 179/5/12 178/6/12 186/7/12 187/8/12
f 180/5/12 179/6/12 187/7/12 188/8/12
f 181/5/12 180/6/12 188/7/12 189/8/12
f 182/5/12 181/6/12 189/7/12 190/8/12
f 175/5/12 182/6/12 190/7/12 183/8/12
f 194/5/6 195/6/6 211/7/6 210/8/6
f 175/5/3 176/6/3 200/7/3 199/8/3
f 182/5/11 175/6/11 199/7/11 206/8/11
f 180/5/8 181/6/8 205/7/8 204/8/8
f 178/1/6 179/2/6 203/3/6 202/4/6
f 176/5/4 177/6/4 201/7/4 200/8/4
f 181/5/10 182/6/10 206/7/10 205/8/10
f 179/1/7 180/2/7 204/3/7 203/4/7
f 192/5/12 191/6/12 199/7/12 200/8/12
f 193/5/12 192/6/12 200/7/12 201/8/12
f 194/5/12 193/6/12 201/7/12 202/8/12
f 195/5/12 194/6/12 202/7/12 203/8/12
f 196/5/12 195/6/12 203/7/12 204/8/12
f 197/5/12 196/6/12 204/7/12 205/8/12
f 198/5/12 197/6/12 205/7/12 206/8/12
f 191/5/12 198/6/12 206/7/12 199/8/12
f 214/5/21 207/6/21 215/7/21 222/8/21
f 192/5/4 193/6/4 209/7/4 208/8/4
f 197/5/10 198/6/10 214/7/10 213/8/10
f 195/5/7 196/6/7 212/7/7 211/8/7
f 193/5/5 194/6/5 210/7/5 209/8/5
f 191/5/3 192/6/3 208/7/3 207/8/3
f 198/5/11 191/6/11 207/7/11 214/8/11
f 196/5/8 197/6/8 213/7/8 212/8/8
f 219/5/22 220/6/22 228/7/22 227/8/22
f 212/5/23 213/6/23 221/7/23 220/8/23
f 210/5/24 211/6/24 219/7/24 218/8/24
f 208/5/25 209/6/25 217/7/25 216/8/25
f 213/5/26 214/6/26 222/7/26 221/8/26
f 211/5/27 212/6/27 220/7/27 219/8/27
f 209/5/57 210/6/57 218/7/57 217/8/57
f 207/5/29 208/6/29 216/7/29 215/8/29
f 229/5/10 230/6/10 238/7/10 237/8/10
f 217/5/30 218/6/30 226/7/30 225/8/30
f 215/5/31 216/6/31 224/7/31 223/8/31
f 222/5/32 215/6/32 223/7/32 230/8/32
f 220/5/33 221/6/33 229/7/33 228/8/33
f 218/5/34 219/6/34 227/7/34 226/8/34
f 216/5/35 217/6/35 225/7/35 224/8/35
f 221/5/36 222/6/36 230/7/36 229/8/36
f 236/5/37 237/6/37 253/7/37 252/8/37
f 227/1/7 228/2/7 236/3/7 235/4/7
f 225/5/5 226/6/5 234/7/5 233/8/5
f 223/5/3 224/6/3 232/7/3 231/8/3
f 230/5/11 223/6/11 231/7/11 238/8/11
f 228/5/8 229/6/8 237/7/8 236/8/8
f 226/1/6 227/2/6 235/3/6 234/4/6
f 224/5/4 225/6/4 233/7/4 232/8/4
f 239/9/12 240/10/12 241/11/12 242/12/12 243/13/12 244/14/12 245/15/12 246/16/12
f 234/5/38 235/6/38 251/7/38 250/8/38
f 232/5/39 233/6/39 249/7/39 248/8/39
f 237/5/58 238/6/58 254/7/58 253/8/58
f 235/5/41 236/6/41 252/7/41 251/8/41
f 233/5/42 234/6/42 250/7/42 249/8/42
f 231/5/43 232/6/43 248/7/43 247/8/43
f 238/5/44 231/6/44 247/7/44 254/8/44
f 256/5/12 255/6/12 247/7/12 248/8/12
f 257/5/12 256/6/12 248/7/12 249/8/12
f 258/5/12 257/6/12 249/7/12 250/8/12
f 259/5/12 258/6/12 250/7/12 251/8/12
f 260/5/12 259/6/12 251/7/12 252/8/12
f 261/5/12 260/6/12 252/7/12 253/8/12
f 262/5/12 261/6/12 253/7/12 254/8/12
f 255/5/12 262/6/12 254/7/12 247/8/12
f 240/5/45 239/6/45 255/7/45 256/8/45
f 241/5/46 240/6/46 256/7/46 257/8/46
f 242/5/47 241/6/47 257/7/47 258/8/47
f 243/5/59 242/6/59 258/7/59 259/8/59
f 244/5/60 243/6/60 259/7/60 260/8/60
f 245/5/61 244/6/61 260/7/61 261/8/61
f 246/5/62 245/6/62 261/7/62 262/8/62
f 239/5/52 246/6/52 262/7/52 255/8/52
f 2/2/1 1/1/9 263/1/1 264/2/9
f 264/2/9 263/1/9 265/1/9 266/2/9
f 266/2/63 265/1/64 5/4/65 6/3/66
f 266/2/67 6/3/66 4/3/68 2/2/68
f 5/4/65 265/1/64 1/1/69 3/4/69
