# Blender 4.1.1
# www.blender.org
mtllib turret1case.mtl
o turret01
v -0.862809 1.425387 -1.021224
v -0.862809 1.942980 -1.021224
v -0.672250 1.425387 -1.501552
v -0.689134 1.942980 -1.501553
v 0.862809 1.425387 -1.021224
v 0.862809 1.942980 -1.021224
v 0.690243 1.425387 -1.501552
v 0.691107 1.942980 -1.501553
v -1.462169 1.168405 -0.702174
v -1.462169 1.985396 -0.702174
v 1.462169 1.985396 -0.702174
v 1.462169 1.168405 -0.702174
v -1.462169 1.168405 0.325966
v -1.462169 1.985397 0.325966
v 1.462169 1.985397 0.325966
v 1.462169 1.168405 0.325966
v 0.100238 1.425387 -1.501552
v -0.163578 1.425387 -1.501552
v -0.140431 1.942980 -1.501553
v 0.097767 1.942980 -1.501553
v -0.141325 1.425387 -1.021224
v 0.098661 1.425387 -1.021224
v 0.098661 1.942980 -1.021224
v -0.141325 1.942980 -1.021224
v -0.341112 1.168405 -0.702174
v 0.298448 1.168405 -0.702174
v 0.148559 1.985396 -0.552285
v -0.191224 1.985396 -0.552285
v 0.148559 1.985396 0.176077
v -0.191224 1.985396 0.176077
v -1.254943 1.358518 1.210177
v -1.254943 1.790145 1.210177
v 1.270289 1.790145 1.210177
v 1.270289 1.358518 1.210177
v 0.298448 1.358518 1.210177
v -0.341112 1.790145 1.210177
v -0.341112 1.358518 1.210177
v 0.298448 1.790145 1.210177
v -1.100217 1.537694 1.831244
v -1.100217 1.632049 1.831244
v 1.115563 1.632049 1.831244
v 1.115563 1.537694 1.831244
v 0.298448 1.537694 1.831244
v -0.341112 1.632049 1.831244
v -0.341112 1.537694 1.831244
v 0.298448 1.632049 1.831244
v 0.298448 1.985396 -0.702174
v -0.341112 1.985396 -0.702174
v 0.148559 2.226825 -0.552285
v -0.191224 2.226825 -0.552285
v 0.148559 2.226825 -0.003776
v -0.191224 2.226825 -0.003776
v -0.341112 1.168405 0.325966
v 0.298448 1.168405 0.325966
v 0.298448 1.985397 0.325966
v -0.341112 1.985397 0.325966
vn -0.9349 -0.0152 -0.3545
vn -0.0000 -0.0000 -1.0000
vn 0.9414 -0.0008 -0.3374
vn -0.0000 0.9913 -0.1318
vn -0.0000 -1.0000 -0.0000
vn -0.0000 1.0000 -0.0000
vn 0.4699 -0.0000 -0.8827
vn -0.4699 -0.0000 -0.8827
vn -0.0000 -0.7788 -0.6273
vn -0.0000 -0.9777 0.2102
vn 1.0000 -0.0000 -0.0000
vn -1.0000 -0.0000 -0.0000
vn -0.0000 -0.9608 0.2772
vn -0.0000 0.9765 0.2156
vn -0.9736 -0.0000 0.2282
vn -0.9706 -0.0000 0.2408
vn 0.9773 -0.0000 0.2121
vn -0.0000 -0.0000 1.0000
vn -0.9703 -0.0000 0.2417
vn -0.0000 0.9691 0.2467
vn 0.9703 -0.0000 0.2417
vn -0.0000 0.5974 0.8019
vt 0.221866 0.885928
vt 0.285947 0.885928
vt 0.285947 0.950009
vt 0.221866 0.950009
vt 0.049991 0.885928
vt 0.114072 0.885928
vt 0.114072 0.950009
vt 0.049991 0.950009
s 1
usemtl Material.005
f 1/1/1 2/2/1 4/3/1 3/4/1
f 17/1/2 20/2/2 8/3/2 7/4/2
f 7/1/3 8/2/3 6/3/3 5/4/3
f 24/5/4 2/6/4 10/7/4 48/8/4
f 17/1/5 7/2/5 5/3/5 22/4/5
f 19/5/6 4/6/6 2/7/6 24/8/6
f 48/5/6 10/6/6 14/7/6 56/8/6
f 5/1/7 6/2/7 11/3/7 12/4/7
f 2/1/8 1/2/8 9/3/8 10/4/8
f 22/1/9 5/2/9 12/3/9 26/4/9
f 54/1/10 16/2/10 34/3/10 35/4/10
f 12/1/11 11/2/11 15/3/11 16/4/11
f 26/1/5 12/2/5 16/3/5 54/4/5
f 10/1/12 9/2/12 13/3/12 14/4/12
f 9/1/5 25/2/5 53/3/5 13/4/5
f 25/1/5 26/2/5 54/3/5 53/4/5
f 55/1/12 54/2/12 35/3/12 38/4/12
f 1/1/9 21/2/9 25/3/9 9/4/9
f 21/1/9 22/2/9 26/3/9 25/4/9
f 11/5/6 47/6/6 55/7/6 15/8/6
f 27/1/2 28/2/2 50/3/2 49/4/2
f 8/5/6 20/6/6 23/7/6 6/8/6
f 20/5/6 19/6/6 24/7/6 23/8/6
f 3/1/5 18/2/5 21/3/5 1/4/5
f 18/1/5 17/2/5 22/3/5 21/4/5
f 6/5/4 23/6/4 47/7/4 11/8/4
f 23/1/4 24/2/4 48/3/4 47/4/4
f 3/1/2 4/2/2 19/3/2 18/4/2
f 18/1/2 19/2/2 20/3/2 17/4/2
f 31/1/13 37/2/13 45/3/13 39/4/13
f 38/1/12 35/2/12 43/3/12 46/4/12
f 15/5/14 55/6/14 38/7/14 33/8/14
f 14/1/15 13/2/15 31/3/16 32/4/16
f 13/1/10 53/2/10 37/3/10 31/4/10
f 53/1/11 56/2/11 36/3/11 37/4/11
f 56/5/14 14/6/14 32/7/14 36/8/14
f 16/1/17 15/2/17 33/3/17 34/4/17
f 45/1/18 44/2/18 40/3/18 39/4/18
f 42/1/18 41/2/18 46/3/18 43/4/18
f 35/1/13 34/2/13 42/3/13 43/4/13
f 32/1/16 31/2/16 39/3/19 40/4/19
f 37/1/11 36/2/11 44/3/11 45/4/11
f 33/5/20 38/6/20 46/7/20 41/8/20
f 36/5/20 32/6/20 40/7/20 44/8/20
f 34/1/21 33/2/21 41/3/21 42/4/21
f 28/1/6 27/2/6 47/3/6 48/4/6
f 29/1/6 30/2/6 56/3/6 55/4/6
f 27/1/6 29/2/6 55/3/6 47/4/6
f 30/1/6 28/2/6 48/3/6 56/4/6
f 49/5/6 50/6/6 52/7/6 51/8/6
f 28/1/12 30/2/12 52/3/12 50/4/12
f 30/5/22 29/6/22 51/7/22 52/8/22
f 29/1/11 27/2/11 49/3/11 51/4/11
f 53/1/18 54/2/18 55/4/18 56/2/18
